<svg width="360" height="375" viewBox="0 0 360 375" fill="none" xmlns="http://www.w3.org/2000/svg">
<mask id="mask0_536_570" style="mask-type:alpha" maskUnits="userSpaceOnUse" x="0" y="0" width="360" height="375">
<path d="M340 0C351.046 5.15406e-06 360 8.95431 360 20V355C360 366.046 351.046 375 340 375H20C8.95431 375 2.61747e-07 366.046 0 355V20C1.77182e-06 8.95431 8.95431 8.05322e-08 20 0H340Z" fill="#D9D9D9"/>
<path d="M340 0C351.046 5.15406e-06 360 8.95431 360 20V355C360 366.046 351.046 375 340 375H20C8.95431 375 2.61747e-07 366.046 0 355V20C1.77182e-06 8.95431 8.95431 8.05322e-08 20 0H340Z" stroke="white"/>
</mask>
<g mask="url(#mask0_536_570)">
<rect x="139.57" y="635.451" width="609.809" height="528.243" transform="rotate(-123.616 139.57 635.451)" fill="#F5D262"/>
<path d="M211.231 604.265L125.298 475.003L400.87 68.9802L589.534 352.768L211.231 604.265Z" fill="#083657"/>
<rect width="20.4798" height="531.498" transform="matrix(-0.76804 -0.640402 0.565091 -0.825028 126.248 498.541)" fill="#F0C026"/>
</g>
<rect x="77" y="90.9238" width="119" height="111" transform="rotate(-9.39863 77 90.9238)" fill="#F78334"/>
<rect x="96.5967" y="209.312" width="192" height="104" transform="rotate(-9.39863 96.5967 209.312)" fill="#F78334"/>
<path d="M151.938 243.21L157.739 278.254L151.109 279.351C150.993 279.046 150.873 278.709 150.747 278.341C150.674 277.899 150.569 277.462 150.433 277.03C150.349 276.525 150.239 276.057 150.103 275.625C149.956 275.131 149.857 274.725 149.804 274.41C149.476 275.956 148.912 277.25 148.111 278.29C147.311 279.331 146.305 280.114 145.094 280.638C143.957 281.216 142.694 281.62 141.305 281.849C139.095 282.215 137.138 282.15 135.434 281.654C133.783 281.084 132.364 280.151 131.176 278.855C129.978 277.497 128.986 275.812 128.199 273.802C127.465 271.718 126.883 269.381 126.455 266.792L121.407 236.295C121.062 234.212 120.901 232.26 120.924 230.44C121 228.546 121.27 226.847 121.735 225.343C122.252 223.765 122.964 222.382 123.87 221.194C124.839 219.996 126.071 219.014 127.566 218.247C129.114 217.407 130.898 216.82 132.919 216.486C135.381 216.078 137.485 216.054 139.232 216.414C141.041 216.763 142.545 217.422 143.743 218.392C144.994 219.287 145.992 220.419 146.738 221.788C147.536 223.083 148.155 224.473 148.596 225.957C149.036 227.441 149.376 228.909 149.617 230.361L149.93 232.255L141.406 233.666L141.046 231.488C140.889 230.541 140.669 229.604 140.386 228.678C140.155 227.678 139.788 226.831 139.284 226.136C138.769 225.378 138.091 224.809 137.25 224.429C136.472 224.039 135.451 223.948 134.188 224.157C133.431 224.283 132.757 224.524 132.167 224.881C131.567 225.175 131.083 225.579 130.714 226.095C130.345 226.61 130.06 227.241 129.86 227.988C129.649 228.671 129.558 229.497 129.589 230.465C129.619 231.433 129.734 232.517 129.932 233.717L135.294 266.108C135.482 267.244 135.718 268.276 136.001 269.202C136.273 270.065 136.599 270.855 136.976 271.57C137.344 272.223 137.791 272.765 138.316 273.197C138.831 273.566 139.425 273.825 140.099 273.973C140.772 274.121 141.487 274.132 142.245 274.007C143.445 273.808 144.382 273.394 145.056 272.763C145.782 272.059 146.257 271.202 146.479 270.192C146.754 269.109 146.839 267.862 146.736 266.452C146.685 264.968 146.513 263.343 146.22 261.575L144.621 251.914L138.465 252.933L137.258 245.64L151.938 243.21ZM163.897 277.234L158.567 245.032C158.128 242.38 157.757 240.139 157.454 238.308C157.14 236.414 156.858 234.709 156.607 233.193C156.346 231.615 156.058 230.073 155.744 228.568L163.795 227.236C163.91 227.541 164.041 228.136 164.187 229.02C164.334 229.904 164.496 230.882 164.673 231.956C164.914 233.019 165.113 234.024 165.27 234.971C165.514 233.309 165.894 231.883 166.411 230.695C166.991 229.496 167.702 228.503 168.545 227.714C169.377 226.863 170.309 226.222 171.34 225.792C172.361 225.299 173.409 224.963 174.482 224.786L176.207 235.204C174.249 235.528 172.539 236.168 171.075 237.124C169.664 238.006 168.626 239.378 167.962 241.239C167.349 243.027 167.304 245.5 167.827 248.657L172.326 275.839L163.897 277.234ZM203.584 233.007L208.115 260.379C208.241 261.137 208.376 261.958 208.523 262.842C208.669 263.726 208.821 264.641 208.977 265.588C209.124 266.472 209.254 267.261 209.369 267.956C209.547 268.64 209.705 269.198 209.841 269.629L202.075 270.915C201.949 270.547 201.786 270.152 201.587 269.731C201.44 269.236 201.298 268.773 201.162 268.341C201.015 267.847 200.926 267.505 200.895 267.315C200.504 268.483 199.956 269.482 199.25 270.312C198.597 271.069 197.786 271.657 196.818 272.077C195.923 272.549 194.844 272.89 193.581 273.099C191.245 273.486 189.21 273.142 187.475 272.067C185.74 270.991 184.353 269.47 183.313 267.501C182.326 265.459 181.629 263.206 181.222 260.744L181.081 259.891C180.704 257.618 180.659 255.582 180.945 253.783C181.231 251.985 181.785 250.433 182.608 249.129C183.419 247.763 184.431 246.622 185.642 245.708C186.916 244.784 188.316 244.033 189.842 243.456C191.432 242.868 193.11 242.428 194.878 242.136C195.005 242.115 195.131 242.094 195.257 242.073C195.447 242.042 195.636 242.01 195.825 241.979C196.015 241.948 196.204 241.916 196.394 241.885L195.265 235.066C195.098 234.055 194.888 233.182 194.637 232.445C194.438 231.635 194.133 230.972 193.723 230.456C193.377 229.929 192.93 229.581 192.383 229.412C191.826 229.18 191.137 229.132 190.316 229.268C189.495 229.404 188.826 229.677 188.31 230.087C187.847 230.423 187.505 230.901 187.283 231.522C187.114 232.069 187.029 232.731 187.028 233.51C187.017 234.225 187.079 234.993 187.215 235.814L187.372 236.761L179.037 238.141L178.896 237.289C178.604 235.521 178.521 233.848 178.649 232.27C178.767 230.628 179.2 229.129 179.948 227.773C180.697 226.417 181.835 225.255 183.361 224.289C184.888 223.323 186.914 222.63 189.44 222.212C191.713 221.836 193.659 221.838 195.279 222.219C196.899 222.6 198.277 223.28 199.412 224.259C200.547 225.239 201.435 226.487 202.075 228.003C202.768 229.445 203.271 231.113 203.584 233.007ZM198.699 254.64L197.665 248.389C197.412 248.43 197.065 248.488 196.623 248.561C196.244 248.624 195.928 248.676 195.676 248.718C194.476 248.916 193.397 249.257 192.439 249.74C191.534 250.149 190.786 250.727 190.196 251.474C189.606 252.22 189.216 253.193 189.025 254.392C188.824 255.528 188.854 256.886 189.115 258.464L189.241 259.222C189.45 260.485 189.801 261.627 190.294 262.648C190.777 263.606 191.413 264.311 192.202 264.765C192.99 265.218 193.921 265.356 194.995 265.178C196.005 265.011 196.794 264.686 197.363 264.202C197.932 263.719 198.343 263.067 198.596 262.247C198.913 261.416 199.067 260.385 199.057 259.154C199.101 257.849 198.982 256.344 198.699 254.64ZM222.749 199.67L231.273 198.259L240.036 251.203C240.402 253.413 240.721 255.339 240.992 256.98C241.264 258.622 241.499 260.043 241.698 261.242C241.949 262.369 242.148 263.374 242.294 264.258L234.149 265.606C234.086 265.227 233.976 264.759 233.819 264.201C233.652 263.58 233.484 262.959 233.316 262.338C233.212 261.707 233.133 261.233 233.081 260.917C232.817 262.064 232.374 263.11 231.752 264.056C231.193 264.992 230.382 265.775 229.319 266.405C228.329 267.088 227.045 267.56 225.466 267.821C223.32 268.177 221.484 268.059 219.959 267.468C218.497 266.867 217.272 265.934 216.285 264.671C215.35 263.333 214.562 261.712 213.923 259.807C213.283 257.902 212.765 255.75 212.367 253.35L209.154 233.934C208.871 232.23 208.736 230.63 208.749 229.136C208.813 227.569 209.031 226.138 209.4 224.844C209.77 223.55 210.324 222.388 211.061 221.358C211.799 220.328 212.731 219.492 213.858 218.852C214.984 218.211 216.305 217.766 217.821 217.515C218.768 217.358 219.631 217.28 220.409 217.281C221.251 217.271 222.019 217.404 222.713 217.678C223.397 217.889 224.028 218.174 224.606 218.532C225.174 218.828 225.662 219.233 226.072 219.749L222.749 199.67ZM221.553 224.779C220.858 224.894 220.248 225.124 219.721 225.471C219.184 225.755 218.732 226.154 218.363 226.669C218.047 227.111 217.815 227.668 217.666 228.341C217.582 229.004 217.539 229.725 217.538 230.503C217.537 231.282 217.615 232.145 217.772 233.092L220.985 252.508C221.205 253.834 221.461 254.991 221.755 255.981C222.101 256.896 222.521 257.67 223.015 258.302C223.561 258.86 224.15 259.282 224.781 259.567C225.465 259.778 226.249 259.81 227.133 259.664C228.08 259.507 228.811 259.224 229.327 258.814C229.906 258.394 230.338 257.868 230.623 257.237C230.961 256.533 231.156 255.754 231.21 254.902C231.326 254.039 231.333 253.098 231.229 252.077C231.177 250.983 231.052 249.836 230.854 248.636L228.298 233.198C228.079 231.872 227.812 230.651 227.498 229.536C227.246 228.41 226.863 227.468 226.349 226.709C225.897 225.941 225.287 225.393 224.52 225.066C223.741 224.676 222.753 224.58 221.553 224.779ZM259.631 254.771C260.705 254.593 261.526 254.263 262.094 253.78C262.653 253.233 263.032 252.586 263.233 251.84C263.433 251.093 263.524 250.267 263.504 249.362C263.473 248.394 263.374 247.405 263.207 246.395L263.16 246.111L271.4 244.747L271.447 245.031C271.625 246.104 271.729 247.319 271.759 248.677C271.841 249.961 271.74 251.307 271.454 252.717C271.232 254.116 270.741 255.462 269.982 256.755C269.276 257.975 268.191 259.063 266.727 260.019C265.253 260.911 263.348 261.551 261.012 261.938C258.108 262.419 255.703 262.395 253.8 261.867C251.885 261.275 250.329 260.3 249.131 258.942C247.986 257.51 247.051 255.783 246.328 253.762C245.604 251.741 245.038 249.499 244.631 247.037L241.84 230.178C241.61 228.789 241.496 227.316 241.498 225.759C241.5 224.202 241.638 222.687 241.913 221.214C242.252 219.731 242.832 218.337 243.654 217.034C244.539 215.719 245.719 214.616 247.193 213.723C248.657 212.767 250.493 212.107 252.703 211.741C255.229 211.323 257.38 211.388 259.158 211.937C260.999 212.476 262.513 213.393 263.7 214.689C264.951 215.974 265.959 217.558 266.725 219.442C267.491 221.327 268.067 223.437 268.454 225.773C268.6 226.657 268.789 227.793 269.018 229.183C269.248 230.572 269.478 231.961 269.708 233.35C269.928 234.676 270.116 235.812 270.273 236.76L251.993 239.785C252.098 240.417 252.229 241.206 252.385 242.153C252.532 243.037 252.683 243.952 252.84 244.9C252.997 245.847 253.127 246.636 253.232 247.267C253.462 248.656 253.813 249.993 254.285 251.277C254.746 252.498 255.392 253.462 256.223 254.168C257.106 254.8 258.242 255.001 259.631 254.771ZM253.895 218.939C253.137 219.064 252.495 219.3 251.968 219.647C251.431 219.93 251.01 220.324 250.705 220.829C250.399 221.334 250.14 221.928 249.929 222.612C249.781 223.285 249.712 224.042 249.721 224.884C249.794 225.715 249.914 226.636 250.081 227.646L250.975 233.045L261.014 231.383C260.899 230.689 260.753 229.805 260.575 228.731C260.387 227.595 260.231 226.648 260.105 225.89C259.917 224.753 259.65 223.727 259.304 222.812C259.021 221.885 258.669 221.133 258.249 220.553C257.818 219.911 257.224 219.458 256.467 219.194C255.762 218.857 254.905 218.772 253.895 218.939Z" fill="white"/>
<path d="M114.746 113.754C113.736 113.921 112.878 114.225 112.173 114.667C111.52 115.034 110.993 115.575 110.593 116.29C110.192 117.005 109.939 117.826 109.832 118.752C109.726 119.677 109.714 120.782 109.797 122.066C109.869 123.286 110.036 124.686 110.297 126.264L111.802 135.357C112.108 134.463 112.551 133.611 113.131 132.802C113.763 131.918 114.611 131.162 115.674 130.532C116.738 129.902 118.059 129.456 119.637 129.195C122.289 128.756 124.477 129.042 126.202 130.054C127.916 131.003 129.261 132.467 130.237 134.446C131.277 136.415 132.005 138.662 132.423 141.188L134.305 152.553C134.702 154.952 134.847 157.199 134.739 159.292C134.684 161.313 134.272 163.132 133.502 164.752C132.795 166.361 131.657 167.717 130.088 168.82C128.583 169.912 126.567 170.668 124.041 171.086C121.453 171.514 119.233 171.428 117.381 170.826C115.593 170.214 114.101 169.228 112.903 167.87C111.768 166.5 110.849 164.869 110.146 162.974C109.443 161.079 108.909 159.027 108.543 156.817L103.699 127.551C103.406 125.783 103.198 124.131 103.073 122.595C103.001 120.985 103.05 119.517 103.22 118.192C103.443 116.793 103.786 115.536 104.25 114.421C104.777 113.296 105.457 112.308 106.289 111.456C107.122 110.605 108.169 109.88 109.432 109.282C110.696 108.683 112.148 108.248 113.79 107.977C115.81 107.642 117.562 107.644 119.045 107.983C120.518 108.258 121.775 108.796 122.816 109.596C123.846 110.334 124.713 111.261 125.416 112.377C126.173 113.42 126.756 114.588 127.164 115.883C127.563 117.114 127.867 118.361 128.076 119.624L128.154 120.098L121.714 121.164L121.604 120.501C121.489 119.806 121.295 119.027 121.023 118.164C120.813 117.291 120.451 116.475 119.936 115.717C119.422 114.959 118.744 114.39 117.902 114.01C117.061 113.63 116.009 113.545 114.746 113.754ZM123.195 165.387C124.269 165.21 125.153 164.869 125.848 164.364C126.543 163.86 127.08 163.187 127.46 162.346C127.829 161.442 128.041 160.369 128.095 159.127C128.138 157.823 128.019 156.318 127.737 154.613L125.871 143.342C125.662 142.08 125.374 140.927 125.007 139.885C124.693 138.77 124.252 137.869 123.684 137.185C123.117 136.5 122.418 136 121.587 135.683C120.756 135.367 119.741 135.308 118.541 135.506C117.278 135.715 116.252 136.177 115.462 136.892C114.725 137.533 114.182 138.369 113.834 139.399C113.485 140.43 113.321 141.592 113.341 142.887C113.36 144.181 113.495 145.586 113.746 147.101L115.33 156.667C115.507 157.74 115.738 158.74 116.021 159.666C116.304 160.592 116.64 161.445 117.028 162.224C117.416 163.003 117.884 163.672 118.43 164.23C119.03 164.715 119.708 165.089 120.465 165.353C121.275 165.543 122.185 165.555 123.195 165.387ZM130.462 125.846L129.474 119.879L134.967 118.97L133.008 107.131L139.732 106.018L141.692 117.857L148.511 116.728L149.499 122.695L142.679 123.824L148.041 156.215C148.177 157.036 148.371 157.815 148.622 158.551C148.927 159.215 149.373 159.757 149.962 160.178C150.54 160.537 151.335 160.632 152.345 160.465C152.787 160.392 153.287 160.277 153.845 160.12C154.466 159.952 154.929 159.81 155.234 159.695L156.096 164.904C155.686 165.167 155.17 165.382 154.549 165.549C153.938 165.78 153.323 165.98 152.702 166.147C152.144 166.304 151.581 166.43 151.012 166.524C149.876 166.712 148.776 166.732 147.714 166.584C146.725 166.488 145.826 166.15 145.016 165.57C144.207 164.991 143.482 164.138 142.841 163.011C142.264 161.874 141.823 160.39 141.52 158.559L135.955 124.937L130.462 125.846ZM148.498 98.3393L155.223 97.2263L158.907 119.483C159.192 118.463 159.651 117.511 160.283 116.628C160.905 115.682 161.747 114.894 162.811 114.264C163.937 113.623 165.29 113.172 166.868 112.911C168.699 112.608 170.267 112.673 171.571 113.106C172.875 113.538 173.969 114.266 174.852 115.287C175.797 116.298 176.522 117.541 177.025 119.014C177.582 120.414 178.006 121.998 178.299 123.766L184.35 160.325L177.625 161.438L171.856 126.584C171.626 125.195 171.286 123.921 170.835 122.764C170.447 121.595 169.843 120.69 169.023 120.047C168.203 119.404 167.003 119.214 165.425 119.475C163.72 119.757 162.467 120.419 161.667 121.459C160.918 122.426 160.491 123.762 160.384 125.467C160.329 127.097 160.501 129.112 160.898 131.512L166.165 163.335L159.441 164.448L148.498 98.3393Z" fill="white"/>
</svg>
