<svg width="360" height="375" viewBox="0 0 360 375" fill="none" xmlns="http://www.w3.org/2000/svg">
<mask id="mask0_536_540" style="mask-type:alpha" maskUnits="userSpaceOnUse" x="0" y="0" width="360" height="375">
<path d="M340 0C351.046 5.15406e-06 360 8.95431 360 20V355C360 366.046 351.046 375 340 375H20C8.95431 375 2.61747e-07 366.046 0 355V20C1.77182e-06 8.95431 8.95431 8.05322e-08 20 0H340Z" fill="#D9D9D9"/>
<path d="M340 0C351.046 5.15406e-06 360 8.95431 360 20V355C360 366.046 351.046 375 340 375H20C8.95431 375 2.61747e-07 366.046 0 355V20C1.77182e-06 8.95431 8.95431 8.05322e-08 20 0H340Z" stroke="white"/>
</mask>
<g mask="url(#mask0_536_540)">
<rect x="139.57" y="635.451" width="609.809" height="528.243" transform="rotate(-123.616 139.57 635.451)" fill="#F8934C"/>
<path d="M211.231 604.264L125.298 475.003L400.87 68.9797L589.534 352.767L211.231 604.264Z" fill="#083657"/>
<rect width="20.4798" height="531.498" transform="matrix(-0.76804 -0.640402 0.565091 -0.825028 126.248 498.54)" fill="#F66D11"/>
</g>
<rect x="77" y="90.9238" width="119" height="111" transform="rotate(-9.39863 77 90.9238)" fill="#F78334"/>
<rect x="96.5967" y="209.312" width="192" height="104" transform="rotate(-9.39863 96.5967 209.312)" fill="#F78334"/>
<path d="M151.938 243.21L157.739 278.254L151.109 279.351C150.993 279.046 150.873 278.709 150.747 278.341C150.674 277.899 150.569 277.462 150.433 277.03C150.349 276.525 150.239 276.057 150.103 275.625C149.956 275.131 149.857 274.725 149.804 274.41C149.476 275.956 148.912 277.25 148.111 278.29C147.311 279.331 146.305 280.114 145.094 280.638C143.957 281.216 142.694 281.62 141.305 281.849C139.095 282.215 137.138 282.15 135.434 281.654C133.783 281.084 132.364 280.151 131.176 278.855C129.978 277.497 128.986 275.812 128.199 273.802C127.465 271.718 126.883 269.381 126.455 266.792L121.407 236.295C121.062 234.212 120.901 232.26 120.924 230.44C121 228.546 121.27 226.847 121.735 225.343C122.252 223.765 122.964 222.382 123.87 221.194C124.839 219.996 126.071 219.014 127.566 218.247C129.114 217.407 130.898 216.82 132.919 216.486C135.381 216.078 137.485 216.054 139.232 216.414C141.041 216.763 142.545 217.422 143.743 218.392C144.994 219.287 145.992 220.419 146.738 221.788C147.536 223.083 148.155 224.473 148.596 225.957C149.036 227.441 149.376 228.909 149.617 230.361L149.93 232.255L141.406 233.666L141.046 231.488C140.889 230.541 140.669 229.604 140.386 228.678C140.155 227.678 139.788 226.831 139.284 226.136C138.769 225.378 138.091 224.809 137.25 224.429C136.472 224.039 135.451 223.948 134.188 224.157C133.431 224.283 132.757 224.524 132.167 224.881C131.567 225.175 131.083 225.579 130.714 226.095C130.345 226.61 130.06 227.241 129.86 227.988C129.649 228.671 129.558 229.497 129.589 230.465C129.619 231.433 129.734 232.517 129.932 233.717L135.294 266.108C135.482 267.244 135.718 268.276 136.001 269.202C136.273 270.065 136.599 270.855 136.976 271.57C137.344 272.223 137.791 272.765 138.316 273.197C138.831 273.566 139.425 273.825 140.099 273.973C140.772 274.121 141.487 274.132 142.245 274.007C143.445 273.808 144.382 273.394 145.056 272.763C145.782 272.059 146.257 271.202 146.479 270.192C146.754 269.109 146.839 267.862 146.736 266.452C146.685 264.968 146.513 263.343 146.22 261.575L144.621 251.914L138.465 252.933L137.258 245.64L151.938 243.21ZM163.897 277.234L158.567 245.032C158.128 242.38 157.757 240.139 157.454 238.308C157.14 236.414 156.858 234.709 156.607 233.193C156.346 231.615 156.058 230.073 155.744 228.568L163.795 227.236C163.91 227.541 164.041 228.136 164.187 229.02C164.334 229.904 164.496 230.882 164.673 231.956C164.914 233.019 165.113 234.024 165.27 234.971C165.514 233.309 165.894 231.883 166.411 230.695C166.991 229.496 167.702 228.503 168.545 227.714C169.377 226.863 170.309 226.222 171.34 225.792C172.361 225.299 173.409 224.963 174.482 224.786L176.207 235.204C174.249 235.528 172.539 236.168 171.075 237.124C169.664 238.006 168.626 239.378 167.962 241.239C167.349 243.027 167.304 245.5 167.827 248.657L172.326 275.839L163.897 277.234ZM203.584 233.007L208.115 260.379C208.241 261.137 208.376 261.958 208.523 262.842C208.669 263.726 208.821 264.641 208.977 265.588C209.124 266.472 209.254 267.261 209.369 267.956C209.547 268.64 209.705 269.198 209.841 269.629L202.075 270.915C201.949 270.547 201.786 270.152 201.587 269.731C201.44 269.236 201.298 268.773 201.162 268.341C201.015 267.847 200.926 267.505 200.895 267.315C200.504 268.483 199.956 269.482 199.25 270.312C198.597 271.069 197.786 271.657 196.818 272.077C195.923 272.549 194.844 272.89 193.581 273.099C191.245 273.486 189.21 273.142 187.475 272.067C185.74 270.991 184.353 269.47 183.313 267.501C182.326 265.459 181.629 263.206 181.222 260.744L181.081 259.891C180.704 257.618 180.659 255.582 180.945 253.783C181.231 251.985 181.785 250.433 182.608 249.129C183.419 247.763 184.431 246.622 185.642 245.708C186.916 244.784 188.316 244.033 189.842 243.456C191.432 242.868 193.11 242.428 194.878 242.136C195.005 242.115 195.131 242.094 195.257 242.073C195.447 242.042 195.636 242.01 195.825 241.979C196.015 241.948 196.204 241.916 196.394 241.885L195.265 235.066C195.098 234.055 194.888 233.182 194.637 232.445C194.438 231.635 194.133 230.972 193.723 230.456C193.377 229.929 192.93 229.581 192.383 229.412C191.826 229.18 191.137 229.132 190.316 229.268C189.495 229.404 188.826 229.677 188.31 230.087C187.847 230.423 187.505 230.901 187.283 231.522C187.114 232.069 187.029 232.731 187.028 233.51C187.017 234.225 187.079 234.993 187.215 235.814L187.372 236.761L179.037 238.141L178.896 237.289C178.604 235.521 178.521 233.848 178.649 232.27C178.767 230.628 179.2 229.129 179.948 227.773C180.697 226.417 181.835 225.255 183.361 224.289C184.888 223.323 186.914 222.63 189.44 222.212C191.713 221.836 193.659 221.838 195.279 222.219C196.899 222.6 198.277 223.28 199.412 224.259C200.547 225.239 201.435 226.487 202.075 228.003C202.768 229.445 203.271 231.113 203.584 233.007ZM198.699 254.64L197.665 248.389C197.412 248.43 197.065 248.488 196.623 248.561C196.244 248.624 195.928 248.676 195.676 248.718C194.476 248.916 193.397 249.257 192.439 249.74C191.534 250.149 190.786 250.727 190.196 251.474C189.606 252.22 189.216 253.193 189.025 254.392C188.824 255.528 188.854 256.886 189.115 258.464L189.241 259.222C189.45 260.485 189.801 261.627 190.294 262.648C190.777 263.606 191.413 264.311 192.202 264.765C192.99 265.218 193.921 265.356 194.995 265.178C196.005 265.011 196.794 264.686 197.363 264.202C197.932 263.719 198.343 263.067 198.596 262.247C198.913 261.416 199.067 260.385 199.057 259.154C199.101 257.849 198.982 256.344 198.699 254.64ZM222.749 199.67L231.273 198.259L240.036 251.203C240.402 253.413 240.721 255.339 240.992 256.98C241.264 258.622 241.499 260.043 241.698 261.242C241.949 262.369 242.148 263.374 242.294 264.258L234.149 265.606C234.086 265.227 233.976 264.759 233.819 264.201C233.652 263.58 233.484 262.959 233.316 262.338C233.212 261.707 233.133 261.233 233.081 260.917C232.817 262.064 232.374 263.11 231.752 264.056C231.193 264.992 230.382 265.775 229.319 266.405C228.329 267.088 227.045 267.56 225.466 267.821C223.32 268.177 221.484 268.059 219.959 267.468C218.497 266.867 217.272 265.934 216.285 264.671C215.35 263.333 214.562 261.712 213.923 259.807C213.283 257.902 212.765 255.75 212.367 253.35L209.154 233.934C208.871 232.23 208.736 230.63 208.749 229.136C208.813 227.569 209.031 226.138 209.4 224.844C209.77 223.55 210.324 222.388 211.061 221.358C211.799 220.328 212.731 219.492 213.858 218.852C214.984 218.211 216.305 217.766 217.821 217.515C218.768 217.358 219.631 217.28 220.409 217.281C221.251 217.271 222.019 217.404 222.713 217.678C223.397 217.889 224.028 218.174 224.606 218.532C225.174 218.828 225.662 219.233 226.072 219.749L222.749 199.67ZM221.553 224.779C220.858 224.894 220.248 225.124 219.721 225.471C219.184 225.755 218.732 226.154 218.363 226.669C218.047 227.111 217.815 227.668 217.666 228.341C217.582 229.004 217.539 229.725 217.538 230.503C217.537 231.282 217.615 232.145 217.772 233.092L220.985 252.508C221.205 253.834 221.461 254.991 221.755 255.981C222.101 256.896 222.521 257.67 223.015 258.302C223.561 258.86 224.15 259.282 224.781 259.567C225.465 259.778 226.249 259.81 227.133 259.664C228.08 259.507 228.811 259.224 229.327 258.814C229.906 258.394 230.338 257.868 230.623 257.237C230.961 256.533 231.156 255.754 231.21 254.902C231.326 254.039 231.333 253.098 231.229 252.077C231.177 250.983 231.052 249.836 230.854 248.636L228.298 233.198C228.079 231.872 227.812 230.651 227.498 229.536C227.246 228.41 226.863 227.468 226.349 226.709C225.897 225.941 225.287 225.393 224.52 225.066C223.741 224.676 222.753 224.58 221.553 224.779ZM259.631 254.771C260.705 254.593 261.526 254.263 262.094 253.78C262.653 253.233 263.032 252.586 263.233 251.84C263.433 251.093 263.524 250.267 263.504 249.362C263.473 248.394 263.374 247.405 263.207 246.395L263.16 246.111L271.4 244.747L271.447 245.031C271.625 246.104 271.729 247.319 271.759 248.677C271.841 249.961 271.74 251.307 271.454 252.717C271.232 254.116 270.741 255.462 269.982 256.755C269.276 257.975 268.191 259.063 266.727 260.019C265.253 260.911 263.348 261.551 261.012 261.938C258.108 262.419 255.703 262.395 253.8 261.867C251.885 261.275 250.329 260.3 249.131 258.942C247.986 257.51 247.051 255.783 246.328 253.762C245.604 251.741 245.038 249.499 244.631 247.037L241.84 230.178C241.61 228.789 241.496 227.316 241.498 225.759C241.5 224.202 241.638 222.687 241.913 221.214C242.252 219.731 242.832 218.337 243.654 217.034C244.539 215.719 245.719 214.616 247.193 213.723C248.657 212.767 250.493 212.107 252.703 211.741C255.229 211.323 257.38 211.388 259.158 211.937C260.999 212.476 262.513 213.393 263.7 214.689C264.951 215.974 265.959 217.558 266.725 219.442C267.491 221.327 268.067 223.437 268.454 225.773C268.6 226.657 268.789 227.793 269.018 229.183C269.248 230.572 269.478 231.961 269.708 233.35C269.928 234.676 270.116 235.812 270.273 236.76L251.993 239.785C252.098 240.417 252.229 241.206 252.385 242.153C252.532 243.037 252.683 243.952 252.84 244.9C252.997 245.847 253.127 246.636 253.232 247.267C253.462 248.656 253.813 249.993 254.285 251.277C254.746 252.498 255.392 253.462 256.223 254.168C257.106 254.8 258.242 255.001 259.631 254.771ZM253.895 218.939C253.137 219.064 252.495 219.3 251.968 219.647C251.431 219.93 251.01 220.324 250.705 220.829C250.399 221.334 250.14 221.928 249.929 222.612C249.781 223.285 249.712 224.042 249.721 224.884C249.794 225.715 249.914 226.636 250.081 227.646L250.975 233.045L261.014 231.383C260.899 230.689 260.753 229.805 260.575 228.731C260.387 227.595 260.231 226.648 260.105 225.89C259.917 224.753 259.65 223.727 259.304 222.812C259.021 221.885 258.669 221.133 258.249 220.553C257.818 219.911 257.224 219.458 256.467 219.194C255.762 218.857 254.905 218.772 253.895 218.939Z" fill="white"/>
<path d="M123.852 171.117C121.831 171.452 119.953 171.471 118.218 171.174C116.545 170.867 115.041 170.208 113.706 169.196C112.371 168.185 111.231 166.784 110.286 164.994C109.404 163.194 108.749 161 108.32 158.411L107.176 151.497C106.737 148.845 106.703 146.678 107.073 144.995C107.443 143.311 108.028 141.95 108.829 140.909C109.63 139.868 110.462 139.017 111.326 138.355C109.517 137.616 107.992 136.442 106.753 134.83C105.576 133.209 104.732 130.851 104.22 127.757L103.608 124.063C103.242 121.853 103.171 119.854 103.394 118.066C103.606 116.214 104.155 114.631 105.04 113.317C105.915 111.94 107.09 110.805 108.564 109.912C110.027 108.956 111.801 108.306 113.885 107.961C115.716 107.658 117.404 107.67 118.951 107.998C120.56 108.316 121.964 108.959 123.162 109.928C124.424 110.887 125.454 112.209 126.251 113.893C127.112 115.567 127.741 117.604 128.138 120.003L128.687 123.318C129.116 125.907 129.203 128.001 128.948 129.599C128.757 131.188 128.319 132.461 127.634 133.417C126.949 134.374 126.149 135.22 125.232 135.956C126.589 136.315 127.793 136.926 128.845 137.79C129.948 138.581 130.884 139.723 131.65 141.218C132.406 142.65 132.988 144.597 133.395 147.06L134.493 153.689C134.921 156.278 135.008 158.567 134.753 160.555C134.562 162.533 134.034 164.242 133.169 165.683C132.305 167.123 131.104 168.295 129.567 169.198C128.03 170.101 126.125 170.741 123.852 171.117ZM122.975 165.229C124.174 165.031 125.153 164.674 125.911 164.159C126.722 163.571 127.286 162.862 127.602 162.031C127.982 161.189 128.178 160.216 128.19 159.112C128.264 157.996 128.192 156.776 127.973 155.45L126.656 147.494C126.332 145.537 125.818 144 125.114 142.884C124.463 141.694 123.617 140.894 122.576 140.482C121.535 140.071 120.288 139.985 118.836 140.226C117.762 140.403 116.841 140.718 116.073 141.169C115.304 141.621 114.693 142.241 114.24 143.03C113.85 143.808 113.617 144.755 113.543 145.87C113.468 146.985 113.556 148.3 113.806 149.816L115.076 157.487C115.348 159.129 115.788 160.613 116.397 161.939C117.059 163.192 117.926 164.119 118.998 164.72C120.071 165.321 121.396 165.491 122.975 165.229ZM114.572 113.88C113.12 114.12 112.01 114.661 111.241 115.502C110.524 116.269 110.076 117.284 109.896 118.546C109.715 119.809 109.751 121.198 110.001 122.713L110.848 127.828C111.088 129.28 111.524 130.538 112.154 131.601C112.784 132.664 113.562 133.444 114.487 133.939C115.475 134.424 116.633 134.557 117.959 134.338C119.221 134.129 120.221 133.704 120.959 133.063C121.749 132.348 122.276 131.418 122.54 130.271C122.794 129.061 122.774 127.573 122.482 125.805L121.635 120.69C121.395 119.238 121.023 117.97 120.519 116.885C120.005 115.738 119.28 114.885 118.344 114.326C117.408 113.768 116.151 113.619 114.572 113.88ZM130.647 125.815L129.659 119.849L135.152 118.939L133.193 107.1L139.917 105.987L141.877 117.826L148.696 116.697L149.684 122.664L142.864 123.793L148.226 156.184C148.362 157.005 148.556 157.784 148.807 158.521C149.112 159.184 149.558 159.726 150.147 160.148C150.725 160.506 151.52 160.602 152.53 160.435C152.972 160.361 153.472 160.246 154.03 160.089C154.651 159.921 155.114 159.78 155.419 159.664L156.281 164.874C155.87 165.136 155.355 165.351 154.734 165.519C154.123 165.75 153.507 165.949 152.887 166.117C152.329 166.274 151.766 166.399 151.197 166.493C150.061 166.682 148.961 166.701 147.899 166.553C146.91 166.457 146.011 166.119 145.201 165.54C144.392 164.96 143.667 164.107 143.026 162.981C142.449 161.844 142.008 160.36 141.705 158.529L136.14 124.906L130.647 125.815ZM148.683 98.3087L155.408 97.1956L159.092 119.453C159.377 118.433 159.836 117.481 160.468 116.598C161.09 115.651 161.932 114.863 162.996 114.233C164.122 113.593 165.475 113.142 167.053 112.88C168.884 112.577 170.452 112.642 171.756 113.075C173.06 113.508 174.154 114.235 175.037 115.257C175.982 116.268 176.707 117.51 177.21 118.984C177.766 120.384 178.191 121.968 178.483 123.736L184.535 160.294L177.81 161.407L172.041 126.553C171.811 125.164 171.471 123.891 171.02 122.733C170.632 121.565 170.028 120.659 169.208 120.016C168.388 119.374 167.188 119.183 165.61 119.444C163.905 119.726 162.652 120.388 161.851 121.429C161.103 122.396 160.676 123.732 160.569 125.436C160.514 127.067 160.686 129.082 161.083 131.481L166.35 163.304L159.626 164.417L148.683 98.3087Z" fill="white"/>
</svg>
