<svg width="256" height="192" viewBox="0 0 256 192" fill="none" xmlns="http://www.w3.org/2000/svg">
<path d="M0 72.6551V178.915C0 186.094 5.8203 191.915 13 191.915H179.534C183.309 191.915 186.925 190.39 189.56 187.685L252.027 123.583C254.574 120.968 256 117.462 256 113.812V90.1914C256 84.0595 251.029 79.0886 244.897 79.0886V50.6278C249.626 49.9522 253.139 45.9021 253.139 41.125V37.6765V24.7252V11C253.139 4.92487 248.214 0 242.139 0H77.0903C71.9025 0 66.9178 2.01578 63.1882 5.6218L4.26856 62.5903C1.54046 65.2281 0 68.8603 0 72.6551Z" fill="white"/>
<path d="M46.9903 51.4133H39.125V67.1017H46.9903V51.4133Z" fill="#F88130"/>
<path d="M46.9903 82.8473H39.125V105.167H46.9903V82.8473Z" fill="#F88130"/>
<path d="M46.9903 120.914H39.125V143.234H46.9903V120.914Z" fill="#F88130"/>
<path d="M84.9492 151.101V143.236H62.0274V151.101H84.9492Z" fill="#F88130"/>
<path d="M126.27 151.101V143.236H103.348V151.101H126.27Z" fill="#F88130"/>
<path d="M167.588 151.101V143.236H144.666V151.101H167.588Z" fill="#F88130"/>
<path d="M203.66 151.107V143.242H185.986V151.107H203.66Z" fill="#F88130"/>
<path d="M79.4172 124.422H163.301C173.208 124.422 181.236 116.394 181.236 106.487V30.1684C181.236 20.2621 173.208 12.2336 163.301 12.2336H79.4172C69.5109 12.2336 61.4824 20.2621 61.4824 30.1684V106.487C61.4824 116.394 69.5109 124.422 79.4172 124.422Z" fill="#4F7CB8"/>
<path d="M66.7316 17.4811L11.7598 72.453H16.0148V82.6963L61.4836 37.2274V30.1619C61.4836 25.2087 63.4877 20.725 66.7376 17.4811H66.7316Z" fill="#4F7CB8"/>
<path d="M77.9171 12.2938C73.5662 12.6549 69.6546 14.5625 66.736 17.4751C63.4924 20.7247 61.4824 25.208 61.4824 30.1607V37.2256L82.1657 16.5424L77.9171 12.2938Z" fill="#4F7CB8"/>
<path d="M22.0091 72.4535H11.7598V172.581H22.0091V72.4535Z" fill="#4F7CB8"/>
<path d="M178.474 180.634L244.628 114.48L237.376 107.228L174.219 170.391H178.474V180.634Z" fill="#4F7CB8"/>
<path d="M178.474 180.634L178.467 180.641H178.474V180.634Z" fill="#4F7CB8"/>
<path d="M11.7656 170.391V180.64H163.97L174.22 170.391H11.7656Z" fill="#4F7CB8"/>
<path d="M178.472 170.391H174.217L163.969 180.639H178.466L178.472 180.633V170.391Z" fill="#4F7CB8"/>
<path d="M98.6158 72.3632V37.0293H89.6484V12.2216H133.324V37.0293H124.35V72.3632H98.6158Z" fill="#4F7CB8"/>
<path d="M119.217 72.3633V12.2277H141.148C145.415 12.2277 149.176 13.1245 152.3 14.7855C158.541 18.1017 162.212 24.4691 162.212 32.7985C162.212 36.7707 161.297 40.0928 159.853 42.783C161.532 46.8334 161.532 50.8777 161.532 52.7795V54.4466C161.532 58.5933 161.719 59.9414 162.001 61.9816L163.44 72.3573H119.217V72.3633Z" fill="#4F7CB8"/>
<path d="M149.658 72.3632V12.2216H189.373V37.0293H188.76V47.6758H191.775L188.218 72.3632H149.658Z" fill="#4F7CB8"/>
<path d="M176.691 72.3632V12.2216H216.413V37.0293H215.793V47.6758H218.814L215.251 72.3632H176.691Z" fill="#4F7CB8"/>
<path d="M208.831 124.422H199.286C196.764 124.422 194.718 122.376 194.718 119.854V92.4165C194.718 89.9068 192.684 87.8726 190.174 87.8726H190.066C187.55 87.8726 185.51 85.8324 185.51 83.3167V68.3671C185.51 65.8514 187.55 63.8112 190.066 63.8112H209.686C210.125 63.8112 210.486 63.4561 210.486 63.0107V41.5251C210.486 39.0516 208.464 37.0294 205.99 37.0294C203.517 37.0294 201.483 35.0012 201.483 32.5216V15.929C201.483 13.8827 203.15 12.2216 205.19 12.2216L241.77 12.1675V38.4798H232.67V87.8786H222.493V91.9531L244.875 91.9049L244.887 114.239L234.818 122.966C234.716 123.303 234.277 124.41 233.922 124.41L208.825 124.422H208.831Z" fill="#4F7CB8"/>
<path d="M142.11 63.8112H91.8086V124.422H142.11V63.8112Z" fill="#4F7CB8"/>
<path d="M125.092 124.422L139.301 63.8112H162.231L176.711 124.422H125.092Z" fill="#4F7CB8"/>
<path d="M158.775 124.422V63.8112H180.207C192.809 63.8112 200.952 71.8578 200.952 84.3098C200.952 88.3421 200.043 91.7004 198.599 94.4207C200.326 98.5312 200.326 102.708 200.326 104.676V106.361C200.326 110.399 200.483 112.091 200.766 113.794L202.535 124.416H158.775V124.422Z" fill="#4F7CB8"/>
<path d="M232.295 111.945C232.277 111.987 232.271 112.029 232.271 112.078C232.295 112.451 232.421 114.214 232.415 114.214H222.817L222.859 112.138L221.445 112.126C221.445 112.126 221.661 107.041 221.673 106.794C221.709 106.03 221.74 105.416 221.752 105.187C221.752 105.139 221.752 105.085 221.752 105.037V105.019C221.752 104.958 221.752 104.898 221.74 104.844L221.601 103.598L221.451 102.263L221.246 100.728L235.942 100.758L234.642 102.714C234.648 102.714 234.75 102.714 234.907 102.708C235.358 102.696 237.013 102.648 237.013 102.648L232.283 111.945H232.295Z" fill="white"/>
<path d="M78.2632 52.8818C78.6363 56.6554 80.2432 59.8632 84.3177 59.8632C88.3921 59.8632 89.9388 57.516 89.9388 53.8087C89.9388 50.1013 88.2116 47.9347 82.771 45.2806C75.7836 42.0066 72.943 39.0396 72.943 32.8587C72.943 26.6778 77.0836 21.8571 84.3779 21.8571C93.3392 21.8571 95.6262 28.038 95.7526 33.292H89.3852C89.1384 31.0652 88.5185 27.051 84.2575 27.051C80.9173 27.051 79.4368 29.2778 79.4368 32.305C79.4368 35.6452 80.9173 37.2521 85.9908 39.5993C93.4054 43.0598 96.5591 46.4602 96.5591 53.255C96.5591 60.0497 92.605 65.063 84.1371 65.063C74.929 65.063 72.0823 59.1289 71.7754 52.8879H78.2632V52.8818Z" fill="white"/>
<path d="M107.687 28.2246H98.5996V22.4771H123.263V28.2246H114.175V64.383H107.687V28.2246Z" fill="white"/>
<path d="M134.252 46.0269V64.383H127.824V22.4771H139.999C147.414 22.4771 151.494 26.4973 151.494 33.7254C151.494 39.8461 148.281 42.5002 145.994 43.3668C149.454 44.8474 150.875 47.8204 150.875 53.8749V55.542C150.875 59.9896 151.061 62.1562 151.434 64.383H145.127C144.507 62.4691 144.447 59.0086 144.447 55.4818V54.0013C144.447 48.2537 143.213 46.0269 138.146 46.0269H134.252ZM134.252 40.7067H138.453C143.147 40.7067 144.94 38.4197 144.94 33.9721C144.94 30.1986 143.147 27.8515 139.067 27.8515H134.246V40.7067H134.252Z" fill="white"/>
<path d="M176.308 45.2807H162.713V58.7558H177.915L177.115 64.383H156.285V22.4771H176.988V28.2246H162.713V39.5933H176.308V45.2807Z" fill="white"/>
<path d="M201.586 45.2807H187.99V58.7558H203.193L202.392 64.383H181.562V22.4771H202.266V28.2246H187.99V39.5933H201.586V45.2807Z" fill="white"/>
<path d="M215.914 28.2246H206.832V22.4771H231.489V28.2246H222.408V64.383H215.914V28.2246Z" fill="white"/>
<path d="M78.3296 102.606C78.7027 106.415 80.3277 109.659 84.4442 109.659C88.5608 109.659 90.1256 107.288 90.1256 103.545C90.1256 99.8011 88.3803 97.6165 82.8855 94.9323C75.8319 91.6221 72.9612 88.631 72.9612 82.3839C72.9612 76.1369 77.1439 71.274 84.5044 71.274C93.5561 71.274 95.8611 77.5151 95.9875 82.8173H89.5599C89.3071 80.5724 88.6872 76.516 84.378 76.516C81.0077 76.516 79.5092 78.7609 79.5092 81.8242C79.5092 85.1945 81.0077 86.8135 86.1234 89.1907C93.6102 92.6874 96.7939 96.1179 96.7939 102.985C96.7939 109.852 92.7977 114.907 84.2516 114.907C74.9533 114.907 72.0825 108.913 71.7695 102.612H78.3235L78.3296 102.606Z" fill="white"/>
<path d="M126.621 97.6706C126.621 90.2439 126.747 82.1312 126.873 77.4489H126.687C125.188 85.1885 122.378 100.602 119.387 114.209H113.392C111.147 101.853 108.15 85.3751 106.778 77.3225H106.525C106.778 82.2515 106.965 91.3032 106.965 98.5433V114.209H100.91V71.8939H110.708C113.332 84.1293 115.764 97.4178 116.702 103.412H116.763C117.575 98.0438 120.693 83.6237 123.317 71.8939H132.928V114.209H126.627V97.6706H126.621Z" fill="white"/>
<path d="M146.228 102.606L143.796 114.215H137.242L147.166 71.9H155.652L165.763 114.215H158.896L156.399 102.606H146.228ZM155.213 96.8642C153.341 87.9991 151.969 81.8243 151.343 78.0146H151.157C150.657 81.8845 149.159 88.625 147.413 96.8642H155.213Z" fill="white"/>
<path d="M176.562 95.6786V114.215H170.074V71.9H182.37C189.863 71.9 193.979 75.9563 193.979 83.2566C193.979 89.4375 190.735 92.1217 188.424 92.9944C191.921 94.4929 193.353 97.4901 193.353 103.605V105.29C193.353 109.786 193.54 111.97 193.913 114.215H187.546C186.92 112.283 186.859 108.787 186.859 105.23V103.731C186.859 97.9234 185.614 95.6786 180.492 95.6786H176.562ZM176.562 90.3102H180.805C185.547 90.3102 187.359 87.9991 187.359 83.5094C187.359 79.6998 185.547 77.3285 181.431 77.3285H176.562V90.3102Z" fill="white"/>
<path d="M206.678 77.7017H197.506V71.8939H222.404V77.7017H213.232V114.215H206.678V77.7017Z" fill="white"/>
</svg>
