<?xml version="1.0" encoding="UTF-8"?>
<svg id="Layer_1" data-name="Layer 1" xmlns="http://www.w3.org/2000/svg" viewBox="0 0 324 324">
  <defs>
    <style>
      .cls-1 {
        fill: #fff;
      }
    </style>
  </defs>
  <polygon class="cls-1" points="40.35 132.79 35.93 133.48 39.63 135.98 40.35 132.79"/>
  <polygon class="cls-1" points="57.75 85.59 60.14 89.36 62.08 86.73 57.75 85.59"/>
  <path class="cls-1" d="M110.84,274.41c-.44-.38-.94-.7-1.5-.96l-1.58-.73-3.33,7.21,1.39.64c.62.29,1.22.49,1.81.61.59.12,1.15.12,1.67.01.52-.11,1.01-.35,1.45-.72.44-.37.82-.9,1.14-1.59.28-.59.4-1.16.38-1.71-.02-.54-.15-1.05-.4-1.51s-.59-.88-1.03-1.26Z"/>
  <polygon class="cls-1" points="164.45 290.57 167.71 290.46 165.94 286.36 164.45 290.57"/>
  <polygon class="cls-1" points="186.64 35.06 184.25 38.83 187.46 39.45 186.64 35.06"/>
  <path class="cls-1" d="M203.83,41.33c.29.08.56.11.82.1.26-.01.49-.09.71-.23.21-.14.38-.38.5-.73.11-.32.13-.6.07-.84-.07-.23-.18-.44-.35-.61-.17-.17-.38-.32-.63-.44-.25-.12-.5-.23-.75-.32l-1.82-.62-.98,2.88,1.65.56c.25.09.52.17.81.24Z"/>
  <path class="cls-1" d="M213.76,276.44c-.38-.41-.82-.73-1.3-.94-.49-.21-1-.32-1.56-.32-.55,0-1.12.12-1.7.36-.58.24-1.07.56-1.46.95-.39.39-.68.84-.87,1.33-.19.5-.27,1.02-.25,1.59.02.56.15,1.13.39,1.7.24.58.55,1.08.93,1.48.38.41.81.72,1.3.93.48.21,1,.32,1.56.32.55,0,1.12-.12,1.7-.36s1.07-.56,1.46-.95c.39-.39.68-.84.87-1.33s.27-1.02.25-1.58c-.02-.56-.15-1.13-.39-1.71-.24-.57-.55-1.06-.93-1.47Z"/>
  <polygon class="cls-1" points="100.65 52.94 97.14 50.17 97.82 54.58 100.65 52.94"/>
  <path class="cls-1" d="M172.01,34.8c.25-.03.47-.1.68-.21.2-.11.37-.26.51-.46.13-.2.21-.46.23-.77.02-.34-.04-.62-.18-.84-.14-.22-.33-.39-.57-.52-.24-.13-.51-.22-.81-.27-.3-.05-.59-.09-.86-.11l-1.51-.1-.22,3.17,1.96.14c.26.02.52.01.77-.02Z"/>
  <path class="cls-1" d="M137.49,41.93c.67-.13,1.28-.32,1.83-.56.55-.25,1-.57,1.36-.96.36-.4.61-.87.75-1.43.14-.56.14-1.21,0-1.95-.12-.64-.35-1.18-.68-1.61-.33-.43-.73-.76-1.2-.99-.47-.23-.99-.37-1.57-.42-.58-.05-1.17-.02-1.78.1l-1.71.33,1.5,7.8,1.5-.29Z"/>
  <path class="cls-1" d="M41.94,114.45c-.32-.12-.6-.15-.83-.09-.24.06-.44.17-.62.33-.18.16-.33.37-.46.61s-.25.49-.34.74l-.68,1.8,2.85,1.07.61-1.63c.09-.25.18-.51.27-.8.09-.28.13-.55.12-.81,0-.26-.07-.49-.21-.71-.13-.22-.37-.39-.71-.52Z"/>
  <path class="cls-1" d="M162.03,60.31c-56.15,0-101.67,45.52-101.67,101.67s45.52,101.67,101.67,101.67,101.67-45.52,101.67-101.67-45.52-101.67-101.67-101.67ZM199.33,226.38c-.48.73-1.69.37-1.96,1.21-.08.26,0,.72,0,1v.33c.07.22.02.38-.16.5-.08.53.09,1.1,0,1.63-.09.49.05.35-.47.4-.34.03-82.84.15-86.49.15-.36-.25-.37-27.4-.37-27.4h1.92l6.22-15.94h28.98l6.43,15.94h21.38v-30.07h8.11l15.42,29.73c-.09.1-.18.19-.25.26-.35.36-.71.71-.97,1.13-.19.31-.47.79-.75,1.05-.15.14-.53.26-.72.42-.29.25-.42.21-.18.63.46.78,1.36.73,1.92,1.33.57.61.41,1.55-.09,2.03-.07.07-.22.25-.31.29h-.3c-.2-.07-.36-.02-.46.16-.3.05-.96-.11-1.11.22-.13.28.31.69.43.89.23.36.37.46.78.67.24.12.55.17.77.34.23.19.44.44.65.65.36.36.57.51.66.99.11.56.08,1.46,0,2.02-.06.4-.1.92-.29,1.26-.38.65-.96,1.1-1.22,1.82-.13.37-.12.65.21.93.3.25.68.25,1.02.43.37.2.76.28.91.77.09.28,0,.76,0,1.06v.7c-.08.22-.02.4.16.53.03.18.1.42.11.55.03.17.17.52.17.64,0,.15-.06.65-.14.76ZM123.19,174.24l9.06-23.37,9.17,23.37h-18.23ZM174.81,160.11v-17.1h10.75c1.48,0,2.99.11,4.53.32,1.54.21,2.91.62,4.11,1.22,1.19.6,2.18,1.47,2.95,2.6.77,1.13,1.16,2.66,1.16,4.57,0,2.06-.44,3.65-1.32,4.78-.88,1.13-1.99,1.97-3.32,2.5-1.34.53-2.83.85-4.48.96-1.65.11-3.22.16-4.69.16h-9.7ZM240.96,121.36c-.29.33.49,1.06.76,1.33.44.45.58.84.75,1.4.12.39.24.94-.31.99-.48.04-.79-.66-1.23-.75-.45-.09-1.11.39-1.38.74-.3.38-.54.64-.15.95.27.22.61.37.89.58.3.23,1.06.86.4,1.11-.49.26-1.13,1.19-1.77,1.5-.58.28-1.23.49-1.79.74-.57.26-1.08.55-1.64.75-.71.25-1.32.49-1.43,1.32-.04.3.01.47.12.71.1.21.2.23.33.43,0,.07,0,.13,0,.2.14.14.28.29.43.43.01.02.31.45.32.48.19.62-.34.96-.72,1.34-.45.46-.56.57-.29,1.11.27.55,1.07,1.29.55,1.94-.21.26-.78.2-1.12.24-.27.03-.81.16-1.07.33-.69.42-.4.86-.5,1.52-.07.42-.17.73-.3,1.11-.4,1.09-1.61,1.58-2.3,2.47-.32.4-.49.68-.55,1.19-.07.52,0,1.09,0,1.61s.14.91.27,1.37c.06.19.11.31.17.49-.06.19,0,.34.16.45-.06.2-.01.35.15.46.14.85.3,1.62.3,2.53,0,.66-.11.75-.44,1.25-.09.14-.07.27-.28.39-.31.18-.63-.11-.86-.14-.42-.06-.71-.18-1.07,0-.5.24-.43.5-.52,1.03-.14.78-.49,1.48-1.16,2.03-.35.28-1.08.67-1.56.81-.28.08-.96-.02-1.01.46-.03.26.47.79.64.96.65.66.84,2.06.22,2.81-.6.73-1.3,1.13-2.03,1.61-.57.38-1.29.57-1.93.88-.31.15-.76.16-1.06.31-.19.1-.33.2-.49.34-.36.31-.22.29-.21.62,0,.43.2.71.33,1.08.19.56.14.89-.32,1.35-.22.22-.46.37-.77.41-.53.06-.78-.23-1.23-.31-.2-.04-.22-.16-.46.01-.06.04-.19.3-.22.36-.14.22-.25.39-.34.65-.09.27-.33.58-.4.84v.31c.07.2.02.36-.15.47v.5c.06.18,0,.32-.15.41-.01.33.25.75.3,1.09.06.41.08.75.15,1.16.04.24.2.35.14.66-.05.3-.09.41-.14.72-.05.29.04.61,0,.91-.18.12-.23.29-.16.51v.69c0,.78.08,1.93-.43,2.57-.54.68-1.26,1.16-2.04,1.45-.47.18-.71.3-1.28.3-.27,0-.72.08-.98,0-.13-.04-.15-.17-.32-.18-.11,0-.16-.21-.31-.09-.13.09-.07.68-.05.8.05.31.36.67.4,1.02.03.25,0,.41-.1.64-.08.18-.22.29-.31.47-.1.21-.14.55-.37.68-.05.02-.55-.14-.6-.16-.21-.07-.3-.23-.57-.15-.37.11-.44.6-.57.93l-8.02-13.43c5.27-.99,9.27-3.35,12.01-7.06,2.74-3.72,4.11-8.23,4.11-13.55,0-4.39-.76-8.06-2.27-11-1.51-2.94-3.55-5.28-6.11-7.01-2.57-1.73-5.55-2.97-8.96-3.72-3.41-.74-7.01-1.12-10.8-1.12h-28.88v43.68l-18.85-43.68h-13.59l-28.98,67.6c0-1.09,1.05-48.52,1.05-51.23,0-1.28-5.53-42.69-5.13-43.01.35-.13,131.34,0,133.03,0,.56,0,1.45-.23,1.84.23.2.23.24.71.38.97.24.47.65.62.68,1.2.03.6.02.81.45,1.15.31.24.61.38.9.65.28.25.4.37.45.73.02.14,0,.3,0,.44,0,.27-.12.41-.15.61-.1.66.13,1.25.14,1.86,0,.1-.14.53-.17.59-.19.34-.48.39-.77.49-.38.14-.77.34-.94.76-.11.28-.09.56-.22.84-.13.28-.27.36-.52.52-.34.23-.65.44-1.04.59-.48.17-.92.25-1.27.69-.34.43-.22.86-.48,1.32-.25.43-.54.46-.96.59-.9.29-1.37,1.3-1.82,2.1-.34.59-.72,1.24-1.05,1.84-.12.22-.52.89-.36,1.16.17.27,19.81-.58,19.97-.32Z"/>
  <path class="cls-1" d="M162.03,10.07C78.13,10.07,10.12,78.08,10.12,161.97s68.01,151.91,151.91,151.91,151.91-68.01,151.91-151.91S245.92,10.07,162.03,10.07ZM263.27,75.45l-3.55,10.31.02.03,7.17-5.92,1.88,2.27-10.32,8.52-2.45-2.97,3.63-10.57-.02-.03-7.35,6.06-1.88-2.27,10.32-8.52,2.55,3.09ZM255.36,66.9l-1.84,2.01-4.53-4.15-1.68,1.84,4.28,3.92-1.84,2.01-4.28-3.92-1.84,2.01,4.78,4.38-1.84,2.01-6.95-6.37,9.04-9.86,6.7,6.14ZM233.79,49.75l-2.33,8.96.03.02,7.45-5.51,3.68,2.48-7.48,11.1-2.45-1.65,5.74-8.51-.03-.02-8.65,6.54-1.87-1.26,2.93-10.4-.03-.02-5.74,8.51-2.44-1.65,7.48-11.1,3.7,2.49ZM213.73,41.95l1.13-2.35,9.54,4.58-1.13,2.35-3.44-1.65-4.67,9.71-2.66-1.28,4.66-9.71-3.44-1.65ZM200.37,34.34l4.9,1.67c.64.22,1.23.49,1.77.81.54.32.97.7,1.31,1.14.34.44.55.95.64,1.53.09.58,0,1.24-.24,1.98-.3.89-.79,1.58-1.47,2.04-.68.47-1.49.63-2.44.5l1.4,6.45-3.35-1.14-.93-5.96-1.38-.47-1.72,5.06-2.79-.95,4.3-12.67ZM186.26,31.02l2.39.46,3.17,14.24-3.27-.63-.59-3-5.1-.99-1.63,2.57-3.19-.62,8.22-12.04ZM166.73,28.83l4.96.34c.69.05,1.34.16,1.95.32.61.17,1.13.42,1.57.76s.77.78,1.01,1.32c.23.54.32,1.21.27,2-.05.78-.22,1.42-.51,1.94-.29.51-.66.91-1.12,1.19-.46.28-1,.47-1.61.56-.61.09-1.27.11-1.97.06l-2.15-.15-.36,5.2-2.94-.2.92-13.35ZM159.27,28.77l.15,2.72-6.13.34.14,2.49,5.79-.32.15,2.72-5.79.32.15,2.72,6.47-.35.15,2.72-9.42.51-.73-13.36,9.08-.5ZM135.43,31.48c1.05-.2,2.07-.28,3.06-.22.99.05,1.89.28,2.7.67.81.39,1.5.97,2.07,1.73.58.76.98,1.74,1.21,2.94.2,1.06.18,2.04-.06,2.93-.25.89-.66,1.67-1.23,2.35-.58.68-1.28,1.25-2.12,1.71-.84.46-1.74.78-2.72.96l-4.73.91-2.52-13.14,4.34-.83ZM108.18,40.96c.3-.52.69-.98,1.19-1.39.5-.41,1.05-.74,1.66-.99.7-.29,1.41-.47,2.15-.55.73-.07,1.46.01,2.18.26l-1.01,2.82c-.34-.19-.72-.27-1.16-.24s-.82.11-1.16.25c-.2.08-.39.19-.58.33-.19.13-.36.29-.5.47-.14.18-.24.37-.29.58-.05.21-.02.43.07.67.16.37.41.6.78.68.36.08.78.1,1.27.07.48-.04,1-.09,1.54-.15.55-.06,1.09-.06,1.62.02s1.03.27,1.49.59c.46.31.84.83,1.14,1.55.29.69.41,1.34.37,1.96-.04.62-.21,1.19-.51,1.71-.29.52-.7.98-1.2,1.38-.51.4-1.08.74-1.72,1.01-.8.34-1.6.52-2.38.57-.79.04-1.59-.09-2.41-.38l1.05-2.94c.43.26.91.4,1.42.42s.99-.06,1.44-.25c.22-.09.43-.21.64-.36.2-.15.37-.31.51-.49.14-.18.23-.37.27-.58.04-.21.02-.42-.07-.64-.16-.37-.42-.61-.79-.7-.37-.1-.81-.13-1.3-.1-.49.03-1.02.07-1.58.13-.56.06-1.11.05-1.65-.03-.54-.08-1.04-.26-1.5-.56-.46-.3-.83-.79-1.12-1.48-.28-.66-.39-1.3-.34-1.91s.23-1.17.52-1.69ZM96.31,46.15l11.75,8.65-2.88,1.67-2.42-1.87-4.49,2.61.46,3.01-2.81,1.63-1.72-14.48,2.11-1.22ZM78.99,58.81c.15-.58.42-1.13.79-1.65.38-.52.83-.98,1.35-1.38.6-.46,1.24-.82,1.93-1.08.69-.26,1.41-.36,2.17-.31l-.26,2.99c-.37-.09-.77-.07-1.18.06-.41.14-.76.31-1.05.54-.17.13-.33.28-.48.46-.15.18-.27.37-.37.58-.09.21-.14.42-.13.64,0,.22.09.42.24.63.25.32.55.47.92.46.37-.01.78-.1,1.24-.26.46-.16.94-.34,1.45-.54.51-.2,1.03-.33,1.57-.39s1.06,0,1.59.19c.52.19,1.02.59,1.5,1.21.45.59.74,1.19.86,1.8.12.61.1,1.2-.05,1.78-.15.58-.42,1.13-.81,1.65-.39.52-.86.99-1.4,1.41-.69.53-1.41.92-2.16,1.16-.75.24-1.56.33-2.43.25l.26-3.11c.49.14.98.15,1.48.05.5-.11.94-.31,1.33-.61.19-.15.37-.32.53-.51.16-.19.28-.4.37-.61.09-.21.12-.42.11-.63-.01-.21-.09-.41-.24-.6-.25-.32-.56-.48-.95-.47-.39,0-.82.08-1.28.24-.47.15-.97.33-1.5.53-.53.2-1.06.33-1.6.4-.54.06-1.07.01-1.59-.16-.52-.17-1.01-.55-1.46-1.14-.44-.57-.71-1.16-.81-1.76s-.08-1.19.07-1.77ZM65.82,69.9l10.61,2.5.03-.03-6.6-6.55,2.08-2.09,9.5,9.42-2.71,2.74-10.88-2.56-.03.03,6.76,6.71-2.08,2.09-9.5-9.42,2.82-2.85ZM55.39,82.23l14.23,3.23-1.97,2.68-2.97-.75-3.08,4.19,1.62,2.58-1.92,2.62-7.36-12.58,1.44-1.96ZM38.67,160.16c-.19.4-.43.75-.74,1.04-.31.29-.67.53-1.08.69-.41.17-.84.24-1.31.23-.47-.01-.9-.11-1.3-.3-.4-.19-.75-.43-1.04-.74-.29-.31-.52-.67-.69-1.08s-.24-.84-.23-1.31c.01-.47.11-.9.3-1.3.19-.4.43-.75.74-1.04.31-.3.67-.53,1.08-.69.41-.17.84-.24,1.31-.23.47.01.9.11,1.3.3.4.19.75.43,1.04.74.3.31.53.67.69,1.08.17.41.24.84.23,1.31-.01.47-.11.9-.3,1.3ZM46.03,131.86l-3.02.5-1.15,5.07,2.52,1.71-.72,3.17-11.78-8.59.54-2.38,14.33-2.73-.73,3.24ZM50.69,117.69l-5.99.74-.51,1.36,5.01,1.88-1.03,2.76-12.53-4.69,1.82-4.85c.24-.64.53-1.22.87-1.74.34-.53.73-.95,1.18-1.27.45-.32.97-.52,1.55-.59.59-.07,1.24.03,1.97.3.89.33,1.55.84,2,1.54.45.69.59,1.51.42,2.46l6.48-1.2-1.24,3.31ZM53.92,110.09l-11.79-6.33,1.4-2.6,4.89,2.63-2.44-7.21,1.82-3.4,2.66,8.19,9.37-2.3-1.95,3.63-8.17,1.79,5.59,3-1.4,2.6ZM98.11,267.5l-5.13-3.38-1.37,2.08,4.84,3.19-1.5,2.27-4.84-3.19-1.5,2.27,5.41,3.57-1.5,2.27-7.87-5.19,7.36-11.17,7.59,5-1.5,2.27ZM114.61,280.3c-.45.98-1.04,1.76-1.76,2.34-.72.58-1.51.98-2.37,1.19-.86.22-1.77.27-2.71.15-.94-.12-1.87-.38-2.77-.8l-4.37-2.02,5.61-12.15,4.01,1.86c.97.45,1.85.98,2.62,1.61.77.62,1.38,1.33,1.8,2.11.43.79.65,1.66.68,2.61.02.96-.22,1.99-.73,3.1ZM132.69,287.52c-.21.76-.53,1.44-.94,2.01-.41.58-.91,1.04-1.5,1.39-.59.35-1.26.56-2.01.63-.75.08-1.57,0-2.46-.26-.9-.25-1.65-.61-2.25-1.06-.61-.46-1.07-.99-1.39-1.59-.32-.6-.51-1.25-.56-1.96-.05-.71.03-1.44.24-2.21l2.22-7.92,2.84.79-2.18,7.81c-.11.4-.15.79-.12,1.16.03.38.13.72.29,1.03.16.31.38.58.66.81.28.23.61.4.99.5s.74.13,1.1.08c.35-.05.68-.17.98-.35.3-.18.56-.43.78-.73.22-.3.39-.66.5-1.06l2.18-7.81,2.84.79-2.22,7.92ZM144.09,289.73c.13.54.34,1.02.64,1.45.29.42.65.77,1.08,1.03.43.27.91.43,1.44.49.6.07,1.15.01,1.64-.18.49-.19.92-.5,1.27-.91l2.22,2.11c-.66.72-1.44,1.22-2.35,1.49-.91.27-1.82.35-2.73.24-1.04-.12-1.98-.4-2.81-.83-.84-.43-1.54-.99-2.1-1.67-.57-.68-.98-1.48-1.23-2.38s-.32-1.89-.19-2.95c.13-1.06.42-2.01.88-2.83.46-.82,1.05-1.5,1.76-2.03.71-.53,1.52-.91,2.44-1.13.91-.22,1.89-.27,2.93-.14.37.05.76.13,1.16.24.4.12.79.27,1.16.47s.73.44,1.06.74c.33.29.62.64.87,1.04l-2.47,1.57c-.25-.38-.57-.7-.96-.93-.4-.24-.87-.39-1.42-.46s-1.07-.02-1.57.14-.94.4-1.33.75c-.39.34-.71.76-.97,1.26-.26.5-.42,1.06-.5,1.67-.07.63-.05,1.21.09,1.75ZM170.04,295.72l-1.24-2.8-5.19.16-1.03,2.87-3.25.1,5.36-13.56,2.44-.08,6.24,13.19-3.32.11ZM184.8,293.98l-2.91.47-1.7-10.64-3.77.6-.41-2.57,10.45-1.67.41,2.57-3.77.6,1.7,10.64ZM195.8,291.62l-3.51-12.91,2.84-.77,3.51,12.91-2.84.77ZM217.6,282.26c-.36.81-.88,1.54-1.57,2.18-.69.64-1.52,1.16-2.48,1.56-.97.4-1.92.62-2.86.66-.94.04-1.82-.1-2.65-.42-.83-.32-1.57-.81-2.24-1.47-.66-.67-1.2-1.49-1.61-2.48-.41-.99-.62-1.95-.62-2.89,0-.94.18-1.82.54-2.63.36-.81.88-1.54,1.57-2.18.69-.64,1.52-1.16,2.48-1.56.97-.4,1.92-.62,2.86-.66.94-.04,1.82.1,2.65.42.83.32,1.57.81,2.24,1.47.67.66,1.2,1.49,1.61,2.48.41.99.62,1.95.62,2.89,0,.94-.18,1.82-.54,2.63ZM235.87,273.76l-10.04-4.91-.03.02,5.11,8.04-2.49,1.58-7.17-11.29,3.38-2.15,9.79,4.8.03-.02-4.99-7.85,2.49-1.58,7.18,11.29-3.25,2.07ZM162.03,267.7c-58.29,0-105.72-47.43-105.72-105.72s47.43-105.72,105.72-105.72,105.72,47.43,105.72,105.72-47.43,105.72-105.72,105.72ZM264.65,100.16l-1.55-2.5,9.15-5.68-2.01-3.24,2.22-1.38,5.58,8.99-2.22,1.38-2.01-3.24-9.15,5.68ZM275.93,124.24c-.61-.72-1.09-1.57-1.44-2.56-.35-.98-.52-1.95-.51-2.89s.2-1.82.55-2.63c.36-.81.89-1.53,1.58-2.16.7-.63,1.55-1.13,2.56-1.49,1.01-.36,1.98-.52,2.92-.47.94.04,1.81.27,2.6.66.79.4,1.49.96,2.1,1.68.61.72,1.09,1.57,1.44,2.56.35.98.52,1.95.51,2.89-.01.94-.2,1.82-.55,2.63-.36.81-.89,1.53-1.58,2.16-.7.63-1.55,1.13-2.56,1.49-1.01.36-1.98.52-2.92.47-.94-.05-1.81-.27-2.6-.67-.79-.4-1.49-.96-2.1-1.68ZM279.05,136.31l-.6-2.89,13.1-2.72,1.83,8.79-2.66.55-1.23-5.9-2.66.55,1.13,5.46-2.66.55-1.14-5.46-5.11,1.06ZM291.57,160.74c-.17.41-.4.76-.7,1.07-.3.31-.64.55-1.04.74-.4.18-.83.28-1.3.29-.47,0-.9-.07-1.31-.24s-.76-.4-1.07-.7c-.31-.3-.55-.64-.74-1.04s-.28-.83-.29-1.3c0-.47.07-.9.24-1.31.17-.41.4-.76.7-1.07.3-.31.64-.55,1.04-.74.4-.18.83-.28,1.3-.29.47,0,.9.07,1.31.24.41.17.76.4,1.07.7.31.3.55.64.74,1.04.18.4.28.83.29,1.3,0,.47-.07.9-.24,1.31Z"/>
  <path class="cls-1" d="M282.51,123.22c.58-.21,1.09-.49,1.52-.86.43-.36.77-.78,1.01-1.25.24-.47.37-.99.4-1.54.03-.55-.06-1.13-.27-1.72-.21-.59-.51-1.09-.88-1.5s-.8-.72-1.29-.93c-.49-.21-1.01-.32-1.57-.33-.56,0-1.14.1-1.72.3-.59.21-1.1.5-1.53.86-.43.36-.76.78-1,1.25-.24.47-.37.99-.4,1.54-.03.55.06,1.13.27,1.72.21.59.51,1.09.88,1.5.37.41.8.72,1.29.93.49.21,1.01.33,1.56.33s1.13-.09,1.73-.31Z"/>
  <path class="cls-1" d="M276.55,47.45C245.95,16.85,205.27,0,162,0S78.05,16.85,47.45,47.45C16.85,78.05,0,118.73,0,162s16.85,83.95,47.45,114.55c30.6,30.6,71.28,47.45,114.55,47.45s83.95-16.85,114.55-47.45c30.6-30.6,47.45-71.28,47.45-114.55s-16.85-83.95-47.45-114.55ZM162,320.63C74.39,320.63,3.37,249.61,3.37,162S74.39,3.37,162,3.37s158.63,71.02,158.63,158.63-71.02,158.63-158.63,158.63Z"/>
</svg>