<svg width="289" height="104" viewBox="0 0 289 104" fill="none" xmlns="http://www.w3.org/2000/svg">
<g clip-path="url(#clip0_495_615)">
<path d="M107.419 81.0088H109.129L113.211 90.407H110.878L110.07 88.4169H106.426L105.643 90.407H103.363L107.419 81.0088ZM108.214 83.7443L107.076 86.6646H109.367L108.214 83.7443Z" fill="white"/>
<path d="M113.582 81.0088H117.212C117.689 81.0088 118.143 81.056 118.571 81.1484C118.999 81.2408 119.373 81.3962 119.697 81.6125C120.019 81.8288 120.277 82.1219 120.467 82.4896C120.655 82.8574 120.752 83.3156 120.752 83.8642C120.752 84.527 120.579 85.0914 120.235 85.5575C119.89 86.0216 119.387 86.3166 118.724 86.4404L121.109 90.409H118.631L116.67 86.6528H115.649V90.409H113.582V81.0108V81.0088ZM115.649 84.8987H116.868C117.055 84.8987 117.251 84.8928 117.459 84.879C117.665 84.8652 117.854 84.8259 118.021 84.759C118.19 84.6922 118.327 84.5879 118.439 84.4464C118.549 84.3048 118.604 84.1061 118.604 83.8485C118.604 83.6106 118.555 83.4198 118.459 83.2782C118.36 83.1366 118.237 83.0285 118.088 82.9537C117.936 82.879 117.766 82.8279 117.569 82.8003C117.375 82.7748 117.186 82.761 117 82.761H115.647V84.8987H115.649Z" fill="white"/>
<path d="M121.547 81.0088H123.614V84.9105L127.258 81.0088H129.961L125.787 85.3765L130.318 90.407H127.431L123.614 85.9468V90.407H121.547V81.0088Z" fill="white"/>
<path d="M132.624 81.0088H134.334L138.416 90.407H136.083L135.275 88.4169H131.631L130.848 90.407H128.568L132.624 81.0088ZM133.419 83.7443L132.281 86.6646H134.572L133.419 83.7443Z" fill="white"/>
<path d="M138.787 81.0088H141.596L145.586 87.5398H145.613V81.0088H147.68V90.407H144.977L140.884 83.7168H140.856V90.407H138.789V81.0088H138.787Z" fill="white"/>
<path d="M153.524 83.3057C153.357 83.0933 153.129 82.936 152.84 82.8337C152.552 82.7314 152.281 82.6803 152.026 82.6803C151.874 82.6803 151.721 82.698 151.56 82.7334C151.401 82.7688 151.25 82.8239 151.109 82.8986C150.967 82.9733 150.852 83.0736 150.763 83.1975C150.675 83.3214 150.632 83.4728 150.632 83.6498C150.632 83.933 150.738 84.1493 150.95 84.3008C151.162 84.4522 151.429 84.58 151.753 84.6862C152.075 84.7924 152.42 84.8986 152.793 85.0048C153.164 85.111 153.512 85.2624 153.834 85.4571C154.156 85.6518 154.423 85.9134 154.637 86.2398C154.849 86.5682 154.955 87.0048 154.955 87.5535C154.955 88.1021 154.857 88.5309 154.662 88.9202C154.468 89.3096 154.205 89.6321 153.873 89.8898C153.541 90.1474 153.158 90.3362 152.721 90.4601C152.283 90.5839 151.821 90.6469 151.336 90.6469C150.728 90.6469 150.161 90.5545 149.64 90.3676C149.12 90.1828 148.633 89.8819 148.182 89.465L149.652 87.8445C149.864 88.1277 150.133 88.348 150.455 88.5014C150.777 88.6567 151.111 88.7334 151.454 88.7334C151.623 88.7334 151.792 88.7137 151.965 88.6744C152.136 88.6351 152.293 88.5741 152.428 88.4955C152.565 88.4168 152.675 88.3145 152.76 88.1906C152.844 88.0667 152.885 87.9212 152.885 87.7521C152.885 87.4689 152.777 87.2467 152.562 87.0815C152.346 86.9183 152.073 86.7786 151.747 86.6626C151.419 86.5486 151.068 86.4325 150.687 86.3165C150.306 86.2024 149.954 86.0471 149.627 85.8524C149.299 85.6577 149.028 85.4001 148.812 85.0815C148.596 84.7629 148.488 84.3421 148.488 83.8209C148.488 83.2998 148.588 82.873 148.786 82.4935C148.985 82.1139 149.25 81.7954 149.581 81.5377C149.913 81.2821 150.296 81.0894 150.728 80.9596C151.162 80.8317 151.607 80.7668 152.065 80.7668C152.595 80.7668 153.107 80.8416 153.602 80.993C154.097 81.1425 154.542 81.3961 154.941 81.7501L153.522 83.3037L153.524 83.3057Z" fill="white"/>
<path d="M159.011 81.0088H160.721L164.803 90.407H162.47L161.661 88.4169H158.018L157.234 90.407H154.955L159.011 81.0088ZM159.804 83.7443L158.666 86.6646H160.957L159.804 83.7443Z" fill="white"/>
<path d="M169.809 83.3057C169.642 83.0933 169.414 82.936 169.125 82.8337C168.839 82.7314 168.566 82.6803 168.311 82.6803C168.16 82.6803 168.006 82.698 167.845 82.7334C167.686 82.7688 167.535 82.8239 167.394 82.8986C167.253 82.9733 167.137 83.0736 167.048 83.1975C166.96 83.3214 166.917 83.4728 166.917 83.6498C166.917 83.933 167.023 84.1493 167.235 84.3008C167.447 84.4522 167.714 84.58 168.038 84.6862C168.36 84.7924 168.705 84.8986 169.078 85.0048C169.449 85.111 169.797 85.2624 170.119 85.4571C170.441 85.6518 170.708 85.9134 170.922 86.2398C171.134 86.5682 171.24 87.0048 171.24 87.5535C171.24 88.1021 171.142 88.5309 170.947 88.9202C170.753 89.3096 170.49 89.6321 170.158 89.8898C169.826 90.1474 169.444 90.3362 169.006 90.4601C168.568 90.5839 168.107 90.6469 167.622 90.6469C167.013 90.6469 166.446 90.5545 165.925 90.3676C165.405 90.1828 164.918 89.8819 164.467 89.465L165.937 87.8445C166.149 88.1277 166.418 88.348 166.74 88.5014C167.062 88.6567 167.396 88.7334 167.739 88.7334C167.908 88.7334 168.077 88.7137 168.25 88.6744C168.421 88.6351 168.578 88.5741 168.713 88.4955C168.851 88.4168 168.961 88.3145 169.045 88.1906C169.129 88.0667 169.171 87.9212 169.171 87.7521C169.171 87.4689 169.063 87.2467 168.847 87.0815C168.631 86.9183 168.358 86.7786 168.032 86.6626C167.704 86.5486 167.353 86.4325 166.972 86.3165C166.591 86.2024 166.24 86.0471 165.912 85.8524C165.584 85.6577 165.313 85.4001 165.097 85.0815C164.881 84.7629 164.773 84.3421 164.773 83.8209C164.773 83.2998 164.873 82.873 165.071 82.4935C165.27 82.1139 165.535 81.7954 165.867 81.5377C166.198 81.2821 166.581 81.0894 167.013 80.9596C167.447 80.8317 167.893 80.7668 168.35 80.7668C168.88 80.7668 169.392 80.8416 169.887 80.993C170.382 81.1425 170.828 81.3961 171.226 81.7501L169.807 83.3037L169.809 83.3057Z" fill="white"/>
<path d="M176.887 81.0088H179.989C180.739 81.0088 181.451 81.0934 182.128 81.2605C182.804 81.4296 183.395 81.701 183.897 82.0766C184.4 82.4522 184.8 82.9419 185.097 83.5437C185.393 84.1455 185.541 84.8751 185.541 85.7345C185.541 86.4955 185.397 87.1661 185.111 87.7463C184.824 88.3264 184.437 88.8121 183.952 89.2074C183.465 89.6007 182.906 89.8996 182.268 90.1042C181.632 90.3087 180.964 90.409 180.267 90.409H176.889V81.0108L176.887 81.0088ZM178.952 88.4955H180.026C180.503 88.4955 180.947 88.4464 181.357 88.35C181.767 88.2536 182.123 88.0904 182.423 87.8662C182.723 87.6401 182.961 87.3451 183.132 86.9773C183.302 86.6096 183.391 86.1612 183.391 85.6302C183.391 85.17 183.304 84.7689 183.132 84.4287C182.961 84.0884 182.727 83.8072 182.437 83.587C182.144 83.3647 181.803 83.1995 181.41 83.0894C181.015 82.9793 180.603 82.9242 180.169 82.9242H178.95V88.4994L178.952 88.4955Z" fill="white"/>
<path d="M186.453 81.0088H192.828V82.9203H188.52V84.6725H192.588V86.584H188.52V88.4955H193.065V90.407H186.453V81.0088Z" fill="white"/>
<path d="M194.15 81.0088H197.635C198.122 81.0088 198.581 81.054 199.013 81.1406C199.447 81.229 199.824 81.3824 200.146 81.5988C200.468 81.8151 200.725 82.1081 200.914 82.4759C201.104 82.8436 201.198 83.3057 201.198 83.8623C201.198 84.4188 201.11 84.8711 200.933 85.2428C200.757 85.6145 200.513 85.9114 200.205 86.1317C199.895 86.3539 199.528 86.5093 199.106 86.6037C198.681 86.6961 198.222 86.7433 197.727 86.7433H196.218V90.407H194.15V81.0088ZM196.218 84.9911H197.596C197.78 84.9911 197.959 84.9734 198.132 84.938C198.303 84.9026 198.46 84.8436 198.595 84.759C198.733 84.6745 198.842 84.5604 198.927 84.4149C199.011 84.2694 199.053 84.0845 199.053 83.8642C199.053 83.6243 198.998 83.4336 198.888 83.2861C198.778 83.1406 198.636 83.0265 198.464 82.9478C198.293 82.8692 198.1 82.818 197.886 82.7944C197.674 82.7728 197.47 82.761 197.278 82.761H196.218V84.9911Z" fill="white"/>
<path d="M204.04 81.0088H205.75L209.832 90.407H207.5L206.691 88.4169H203.047L202.264 90.407H199.984L204.04 81.0088ZM204.833 83.7443L203.695 86.6646H205.986L204.833 83.7443Z" fill="white"/>
<path d="M210.201 81.0088H213.831C214.308 81.0088 214.762 81.056 215.19 81.1484C215.618 81.2408 215.993 81.3962 216.317 81.6125C216.639 81.8288 216.896 82.1219 217.086 82.4896C217.275 82.8574 217.371 83.3156 217.371 83.8642C217.371 84.527 217.198 85.0914 216.854 85.5575C216.509 86.0216 216.006 86.3166 215.343 86.4404L217.728 90.409H215.251L213.289 86.6528H212.268V90.409H210.201V81.0108V81.0088ZM212.268 84.8987H213.488C213.674 84.8987 213.87 84.8928 214.078 84.879C214.285 84.8652 214.473 84.8259 214.64 84.759C214.809 84.6922 214.946 84.5879 215.058 84.4464C215.168 84.3048 215.223 84.1061 215.223 83.8485C215.223 83.6106 215.174 83.4198 215.078 83.2782C214.98 83.1366 214.856 83.0285 214.707 82.9537C214.556 82.879 214.385 82.8279 214.188 82.8003C213.994 82.7748 213.806 82.761 213.619 82.761H212.266V84.8987H212.268Z" fill="white"/>
<path d="M220.193 82.8416H217.518V81.0088H224.938V82.8416H222.261V90.409H220.193V82.8416Z" fill="white"/>
<path d="M225.812 81.0088H228.94L231.099 87.1425H231.127L233.3 81.0088H236.414V90.407H234.347V83.1995H234.319L231.855 90.407H230.279L227.907 83.1995H227.88V90.407H225.812V81.0088Z" fill="white"/>
<path d="M237.566 81.0088H243.941V82.9203H239.634V84.6725H243.701V86.584H239.634V88.4955H244.178V90.407H237.566V81.0088Z" fill="white"/>
<path d="M244.734 81.0088H247.544L251.533 87.5398H251.56V81.0088H253.628V90.407H250.924L246.831 83.7168H246.804V90.407H244.736V81.0088H244.734Z" fill="white"/>
<path d="M256.781 82.8416H254.105V81.0088H261.526V82.8416H258.849V90.409H256.781V82.8416Z" fill="white"/>
<path d="M103.828 98.3794C103.828 97.6282 103.954 96.9458 104.205 96.3362C104.456 95.7246 104.808 95.2054 105.257 94.7767C105.709 94.348 106.243 94.0176 106.861 93.7875C107.48 93.5574 108.155 93.4434 108.889 93.4434C109.624 93.4434 110.299 93.5574 110.917 93.7875C111.536 94.0176 112.07 94.348 112.521 94.7767C112.973 95.2054 113.324 95.7246 113.575 96.3362C113.827 96.9458 113.952 97.6282 113.952 98.3794C113.952 99.1307 113.827 99.8131 113.575 100.423C113.324 101.034 112.973 101.553 112.521 101.982C112.07 102.411 111.536 102.741 110.917 102.971C110.299 103.201 109.624 103.317 108.889 103.317C108.155 103.317 107.48 103.201 106.861 102.971C106.243 102.741 105.709 102.411 105.257 101.982C104.808 101.553 104.456 101.034 104.205 100.423C103.954 99.8131 103.828 99.1307 103.828 98.3794ZM105.974 98.3794C105.974 98.8219 106.043 99.227 106.178 99.5948C106.316 99.9625 106.512 100.281 106.769 100.551C107.024 100.822 107.33 101.03 107.69 101.182C108.049 101.333 108.448 101.408 108.889 101.408C109.331 101.408 109.73 101.333 110.089 101.182C110.446 101.032 110.754 100.822 111.01 100.551C111.267 100.281 111.463 99.9625 111.598 99.5948C111.736 99.227 111.805 98.8219 111.805 98.3794C111.805 97.937 111.736 97.5437 111.598 97.172C111.461 96.8003 111.265 96.4797 111.01 96.2103C110.752 95.9409 110.446 95.7305 110.089 95.579C109.731 95.4276 109.331 95.3529 108.889 95.3529C108.448 95.3529 108.049 95.4276 107.69 95.579C107.332 95.7285 107.024 95.9389 106.769 96.2103C106.512 96.4797 106.316 96.8003 106.178 97.172C106.041 97.5437 105.974 97.9468 105.974 98.3794Z" fill="white"/>
<path d="M114.469 93.6794H120.763V95.5909H116.536V97.5025H120.445V99.414H116.536V103.078H114.469V93.6794Z" fill="white"/>
<path d="M128.078 95.5123H125.402V93.6794H132.823V95.5123H130.145V103.08H128.078V95.5123Z" fill="white"/>
<path d="M133.432 93.6794H137.062C137.539 93.6794 137.992 93.7266 138.42 93.8191C138.848 93.9115 139.223 94.0669 139.547 94.2832C139.869 94.4995 140.126 94.7925 140.317 95.1603C140.505 95.528 140.601 95.9862 140.601 96.5349C140.601 97.1976 140.428 97.762 140.085 98.2281C139.739 98.6922 139.237 98.9872 138.573 99.1111L140.959 103.08H138.481L136.52 99.3235H135.499V103.08H133.432V93.6814V93.6794ZM135.499 97.5693H136.718C136.905 97.5693 137.101 97.5634 137.309 97.5497C137.515 97.5359 137.704 97.4966 137.87 97.4297C138.039 97.3628 138.177 97.2586 138.289 97.117C138.399 96.9754 138.454 96.7768 138.454 96.5192C138.454 96.2812 138.404 96.0905 138.308 95.9489C138.21 95.8073 138.086 95.6991 137.937 95.6244C137.786 95.5497 137.615 95.4985 137.419 95.471C137.225 95.4454 137.036 95.4317 136.85 95.4317H135.497V97.5693H135.499Z" fill="white"/>
<path d="M144.671 93.6794H146.381L150.463 103.078H148.13L147.322 101.088H143.678L142.895 103.078H140.615L144.671 93.6794ZM145.464 96.4149L144.326 99.3353H146.617L145.464 96.4149Z" fill="white"/>
<path d="M150.965 93.6794H153.774L157.763 100.21H157.791V93.6794H159.858V103.078H157.155L153.062 96.3874H153.034V103.078H150.967V93.6794H150.965Z" fill="white"/>
<path d="M165.965 95.9763C165.798 95.764 165.57 95.6066 165.282 95.5044C164.995 95.4021 164.722 95.351 164.467 95.351C164.316 95.351 164.163 95.3687 164.002 95.4041C163.843 95.4395 163.692 95.4945 163.55 95.5693C163.409 95.644 163.293 95.7443 163.205 95.8682C163.116 95.9921 163.073 96.1435 163.073 96.3205C163.073 96.6037 163.179 96.82 163.391 96.9714C163.603 97.1228 163.87 97.2507 164.194 97.3569C164.516 97.4631 164.862 97.5693 165.235 97.6755C165.606 97.7816 165.953 97.9331 166.275 98.1278C166.597 98.3225 166.864 98.584 167.078 98.9105C167.29 99.2389 167.396 99.6755 167.396 100.224C167.396 100.773 167.298 101.202 167.104 101.591C166.909 101.98 166.646 102.303 166.314 102.56C165.983 102.818 165.6 103.007 165.162 103.131C164.724 103.255 164.263 103.318 163.778 103.318C163.169 103.318 162.602 103.225 162.082 103.038C161.561 102.853 161.075 102.553 160.623 102.136L162.093 100.515C162.306 100.798 162.574 101.019 162.896 101.172C163.218 101.327 163.552 101.404 163.896 101.404C164.065 101.404 164.233 101.384 164.406 101.345C164.577 101.306 164.734 101.245 164.869 101.166C165.007 101.087 165.117 100.985 165.201 100.861C165.286 100.737 165.327 100.592 165.327 100.423C165.327 100.14 165.219 99.9173 165.003 99.7521C164.787 99.5889 164.514 99.4493 164.188 99.3333C163.86 99.2192 163.509 99.1032 163.128 98.9872C162.747 98.8731 162.396 98.7177 162.068 98.523C161.74 98.3284 161.469 98.0707 161.253 97.7522C161.037 97.4336 160.929 97.0127 160.929 96.4916C160.929 95.9704 161.029 95.5437 161.228 95.1641C161.426 94.7846 161.691 94.466 162.023 94.2084C162.355 93.9527 162.737 93.76 163.169 93.6302C163.603 93.5024 164.049 93.4375 164.506 93.4375C165.036 93.4375 165.549 93.5122 166.043 93.6637C166.538 93.8131 166.984 94.0668 167.382 94.4208L165.963 95.9744L165.965 95.9763Z" fill="white"/>
<path d="M168.496 93.6794H171.981C172.468 93.6794 172.927 93.7247 173.359 93.8112C173.793 93.8997 174.17 94.0531 174.492 94.2694C174.814 94.4857 175.071 94.7788 175.259 95.1465C175.45 95.5143 175.544 95.9764 175.544 96.5329C175.544 97.0895 175.456 97.5418 175.279 97.9135C175.102 98.2852 174.859 98.5821 174.551 98.8024C174.24 99.0246 173.873 99.1799 173.451 99.2743C173.027 99.3668 172.568 99.414 172.073 99.414H170.563V103.078H168.496V93.6794ZM170.563 97.6637H171.942C172.126 97.6637 172.305 97.646 172.477 97.6106C172.648 97.5752 172.805 97.5162 172.941 97.4317C173.078 97.3471 173.188 97.233 173.273 97.0875C173.357 96.942 173.398 96.7571 173.398 96.5369C173.398 96.297 173.343 96.1062 173.233 95.9587C173.123 95.8132 172.982 95.6991 172.809 95.6205C172.638 95.5418 172.446 95.4907 172.232 95.4671C172.02 95.4454 171.816 95.4336 171.623 95.4336H170.563V97.6637Z" fill="white"/>
<path d="M175.771 98.3794C175.771 97.6282 175.897 96.9458 176.148 96.3362C176.4 95.7246 176.751 95.2054 177.201 94.7767C177.652 94.348 178.186 94.0176 178.805 93.7875C179.423 93.5574 180.098 93.4434 180.833 93.4434C181.567 93.4434 182.242 93.5574 182.861 93.7875C183.479 94.0176 184.013 94.348 184.465 94.7767C184.916 95.2054 185.268 95.7246 185.519 96.3362C185.77 96.9458 185.896 97.6282 185.896 98.3794C185.896 99.1307 185.77 99.8131 185.519 100.423C185.268 101.034 184.916 101.553 184.465 101.982C184.013 102.411 183.479 102.741 182.861 102.971C182.242 103.201 181.567 103.317 180.833 103.317C180.098 103.317 179.423 103.201 178.805 102.971C178.186 102.741 177.652 102.411 177.201 101.982C176.751 101.553 176.4 101.034 176.148 100.423C175.897 99.8131 175.771 99.1307 175.771 98.3794ZM177.919 98.3794C177.919 98.8219 177.988 99.227 178.123 99.5948C178.261 99.9625 178.457 100.281 178.714 100.551C178.97 100.822 179.276 101.03 179.635 101.182C179.994 101.333 180.393 101.408 180.835 101.408C181.276 101.408 181.675 101.333 182.034 101.182C182.391 101.032 182.7 100.822 182.955 100.551C183.212 100.281 183.408 99.9625 183.544 99.5948C183.681 99.227 183.75 98.8219 183.75 98.3794C183.75 97.937 183.681 97.5437 183.544 97.172C183.406 96.8003 183.21 96.4797 182.955 96.2103C182.698 95.9409 182.391 95.7305 182.034 95.579C181.677 95.4276 181.276 95.3529 180.835 95.3529C180.393 95.3529 179.994 95.4276 179.635 95.579C179.278 95.7285 178.97 95.9389 178.714 96.2103C178.457 96.4797 178.261 96.8003 178.123 97.172C177.986 97.5437 177.919 97.9468 177.919 98.3794Z" fill="white"/>
<path d="M186.6 93.6794H190.23C190.707 93.6794 191.16 93.7266 191.588 93.8191C192.016 93.9115 192.391 94.0669 192.715 94.2832C193.037 94.4995 193.294 94.7925 193.485 95.1603C193.673 95.528 193.769 95.9862 193.769 96.5349C193.769 97.1976 193.596 97.762 193.253 98.2281C192.907 98.6922 192.405 98.9872 191.741 99.1111L194.127 103.08H191.649L189.688 99.3235H188.667V103.08H186.6V93.6814V93.6794ZM188.667 97.5693H189.886C190.073 97.5693 190.269 97.5634 190.477 97.5497C190.683 97.5359 190.872 97.4966 191.038 97.4297C191.207 97.3628 191.345 97.2586 191.457 97.117C191.567 96.9754 191.621 96.7768 191.621 96.5192C191.621 96.2812 191.572 96.0905 191.476 95.9489C191.378 95.8073 191.254 95.6991 191.105 95.6244C190.954 95.5497 190.783 95.4985 190.587 95.471C190.393 95.4454 190.204 95.4317 190.018 95.4317H188.665V97.5693H188.667Z" fill="white"/>
<path d="M196.59 95.5123H193.914V93.6794H201.335V95.5123H198.657V103.08H196.59V95.5123Z" fill="white"/>
<path d="M204.21 93.6794H205.92L210.002 103.078H207.669L206.861 101.088H203.217L202.434 103.078H200.154L204.21 93.6794ZM205.005 96.4149L203.867 99.3353H206.158L205.005 96.4149Z" fill="white"/>
<path d="M211.766 95.5123H209.09V93.6794H216.511V95.5123H213.833V103.08H211.766V95.5123Z" fill="white"/>
<path d="M217.223 93.6794H219.292V103.078H217.223V93.6794Z" fill="white"/>
<path d="M220.363 98.3794C220.363 97.6282 220.489 96.9458 220.74 96.3362C220.991 95.7246 221.343 95.2054 221.792 94.7767C222.244 94.348 222.778 94.0176 223.396 93.7875C224.015 93.5574 224.69 93.4434 225.424 93.4434C226.159 93.4434 226.834 93.5574 227.452 93.7875C228.071 94.0176 228.605 94.348 229.056 94.7767C229.508 95.2054 229.859 95.7246 230.111 96.3362C230.362 96.9458 230.488 97.6282 230.488 98.3794C230.488 99.1307 230.362 99.8131 230.111 100.423C229.859 101.034 229.508 101.553 229.056 101.982C228.605 102.411 228.071 102.741 227.452 102.971C226.834 103.201 226.159 103.317 225.424 103.317C224.69 103.317 224.015 103.201 223.396 102.971C222.778 102.741 222.244 102.411 221.792 101.982C221.343 101.553 220.991 101.034 220.74 100.423C220.489 99.8131 220.363 99.1307 220.363 98.3794ZM222.511 98.3794C222.511 98.8219 222.58 99.227 222.715 99.5948C222.853 99.9625 223.049 100.281 223.306 100.551C223.561 100.822 223.868 101.03 224.227 101.182C224.586 101.333 224.985 101.408 225.426 101.408C225.868 101.408 226.267 101.333 226.626 101.182C226.983 101.032 227.291 100.822 227.547 100.551C227.804 100.281 228 99.9625 228.136 99.5948C228.273 99.227 228.342 98.8219 228.342 98.3794C228.342 97.937 228.273 97.5437 228.136 97.172C227.998 96.8003 227.802 96.4797 227.547 96.2103C227.289 95.9409 226.983 95.7305 226.626 95.579C226.269 95.4276 225.868 95.3529 225.426 95.3529C224.985 95.3529 224.586 95.4276 224.227 95.579C223.87 95.7285 223.561 95.9389 223.306 96.2103C223.049 96.4797 222.853 96.8003 222.715 97.172C222.578 97.5437 222.511 97.9468 222.511 98.3794Z" fill="white"/>
<path d="M231.455 93.6794H234.264L238.254 100.21H238.281V93.6794H240.348V103.078H237.645L233.552 96.3874H233.524V103.078H231.457V93.6794H231.455Z" fill="white"/>
<path d="M235.83 16.2812L231.275 27.7306H283.398L288.039 16.2812H235.83Z" fill="white"/>
<path d="M244.167 31.8564L227.262 74.2419H240.621L257.603 31.8564H244.167Z" fill="white"/>
<path d="M214.877 31.8564L203.736 60.0885C203.19 61.473 201.855 62.3815 200.369 62.3815H182.225C181.267 62.3815 180.612 61.414 180.963 60.5231L192.988 30.0551C193.543 28.647 194.9 27.7227 196.411 27.7227H229.303L230.854 23.7031C232.259 20.061 229.576 16.1416 225.677 16.1416H194.24C188.804 16.1416 183.925 19.4907 181.966 24.5723L165.619 66.9479C164.264 70.4621 166.851 74.2439 170.611 74.2439H201.698C207.519 74.2439 212.739 70.6588 214.838 65.2193L227.709 31.8584H214.877V31.8564Z" fill="white"/>
<path d="M165.89 16.2812H122.715L118.133 27.7227H159.058C161.999 27.7227 162.549 29.8938 160.954 33.9214C159.295 38.1102 154.87 49.4258 152.505 55.3845C150.351 60.8063 148.971 62.7709 144.536 62.7709H126.91L139.324 31.8565H125.925L108.969 74.2419H142.4C153.975 74.2419 160.193 68.4445 162.456 63.0325C164.72 57.6205 173.144 36.5074 175.453 30.4464C178.949 21.2685 176.028 16.2812 165.888 16.2812H165.89Z" fill="white"/>
<path d="M84.992 37.5321C84.3343 37.1702 83.5568 36.9283 82.6813 36.8123C81.7527 36.6904 80.8319 36.6294 79.9426 36.6294H74.1492L72.1035 47.5537H77.0351C78.0461 47.5537 79.0886 47.5006 80.133 47.3983C81.1284 47.3 82.0746 47.062 82.9424 46.6864C83.7787 46.3246 84.5286 45.7621 85.1686 45.0168C85.7969 44.2813 86.2484 43.2174 86.5075 41.8526C86.7137 40.6805 86.6646 39.7366 86.3583 39.0522C86.054 38.3698 85.6064 37.8723 84.992 37.534V37.5321Z" fill="white"/>
<path d="M118.695 15.6618C118.608 15.6303 118.561 15.4966 118.416 15.3059C118.744 15.3059 118.93 15.3177 119.113 15.3019C119.323 15.2842 119.649 15.4081 119.619 15.0148C119.602 14.7985 119.552 14.5114 119.407 14.3973C119.211 14.2439 118.903 14.1475 118.651 14.1633C116.72 14.2872 114.782 13.9253 112.84 14.3973C111.841 14.6392 110.732 14.4091 109.674 14.4484C108.507 14.4917 107.318 14.2262 106.179 14.7179C105.989 14.8004 105.733 14.7297 105.48 14.7297C105.641 13.5635 106.25 12.7257 106.768 11.8467C106.837 11.7287 107.328 11.3845 107.51 11.2587C108.083 10.8614 108.729 10.5114 108.659 9.64411C108.649 9.52021 108.694 9.33536 108.782 9.27243C109.222 8.95581 109.685 8.67066 110.141 8.37567C110.622 8.06495 110.785 7.8506 111.285 7.05807C111.399 6.87715 111.625 6.72375 111.831 6.65296C112.332 6.48383 112.414 6.12788 112.412 5.66771C112.412 5.05217 112.306 4.37371 112.53 3.84273C112.705 3.42779 112.646 3.28423 112.402 3.01677C112.13 2.71785 111.857 2.5448 111.417 2.58216C110.903 2.62543 110.647 2.31274 110.673 1.78963C110.679 1.64608 110.677 1.50055 110.673 1.35699C110.653 0.649025 110.015 -0.023541 109.324 0.00399099C106.332 0.123952 103.342 -0.159234 100.341 0.238013C98.3538 0.501533 96.3042 0.259645 94.2821 0.295043C92.2502 0.332408 90.2026 0.0747874 88.1923 0.576262C81.3505 0.684424 74.5087 0.517265 67.6611 0.806351C61.1275 1.08167 54.5724 0.865348 48.0271 0.865348C41.4818 0.865348 34.9345 0.914512 28.3892 0.851582C21.8831 0.790618 15.3711 1.13673 8.87098 0.591995C7.58116 0.483834 6.27366 0.576262 4.97402 0.576262H0.124908C-0.11264 1.41599 0.207363 2.11019 0.309449 2.83388C0.419389 3.60871 0.382088 4.38747 0.578408 5.17606C0.776692 5.96663 0.607856 6.82208 0.874852 7.65591C1.09473 8.34027 0.894484 9.0974 1.14185 9.85453C1.3578 10.5173 1.31854 11.3 1.45203 12.0335C1.66995 13.2233 1.6778 14.4504 1.77204 15.6618C1.77989 15.7582 1.73081 15.8958 1.77989 15.943C2.17449 16.3285 2.01547 16.8181 2.07044 17.2724C2.1313 17.766 2.28247 18.2498 2.34529 18.7434C2.43167 19.4278 2.31584 20.0984 2.59658 20.8063C2.87339 21.5064 2.62799 22.3363 2.87339 23.1407C3.09131 23.8545 3.05597 24.6825 3.1934 25.4632C3.39364 26.6077 3.41327 27.7857 3.50751 28.9499C3.51536 29.0463 3.46824 29.1761 3.51536 29.2331C4.02776 29.8624 3.60763 30.6353 3.82358 31.2764C4.06898 32.0099 4.09451 32.7316 4.08862 33.475C4.08469 33.9568 4.12592 34.4406 4.07684 34.9184C4.03168 35.3649 3.83929 35.7995 3.80788 36.2439C3.65867 38.3186 3.87659 40.3894 3.5664 42.4858C3.22873 44.767 3.59782 47.1112 3.26014 49.4396C2.94407 51.6323 3.31708 53.8703 2.98333 56.1082C2.64959 58.3422 3.00885 60.6372 2.68689 62.9184C2.35903 65.2547 2.72812 67.6382 2.40419 70.0197C2.06063 72.5468 2.48075 75.1289 2.10971 77.6972C1.85842 79.4415 2.06259 81.2528 2.06063 83.0325C2.06063 83.3983 1.97032 83.8034 2.54358 83.8349C2.58088 83.8368 2.67118 84.1554 2.6221 84.1967C1.89375 84.8339 2.6437 84.9656 2.97744 85.0876C3.44861 85.2626 3.73917 85.6087 4.07487 85.9253C4.49238 86.3199 4.98711 86.316 5.55906 85.9135C5.60421 85.882 5.7593 85.9391 5.81035 85.9981C6.19513 86.4445 6.23832 86.4524 6.55636 86.0571C6.70557 85.8722 6.79587 85.8998 7.07269 86.0138C7.19637 86.0649 7.43784 86.004 7.536 85.9037C7.68717 85.7503 7.75195 85.5163 7.87171 85.3294C7.89723 85.2881 7.99932 85.296 8.08374 85.2764C8.11122 85.5241 8.13674 85.7523 8.17208 86.0767C8.39785 86.0767 8.62951 86.0551 8.85331 86.0807C9.36963 86.1397 9.69553 86.0315 9.59148 85.4061C9.58559 85.3727 9.87418 85.2901 10.0253 85.2311C10.1942 85.7306 11.0305 85.5654 11.0285 86.2341C11.1208 86.2144 11.2936 86.1908 11.2916 86.177C11.27 85.8585 11.4212 85.768 11.7216 85.7818C12.0828 85.7995 12.4381 85.7011 12.5324 86.2636C12.5893 86.6097 13.2529 86.0649 13.3176 86.6018C13.3648 86.9814 13.351 87.3727 13.3216 87.7562C13.2371 88.8732 13.0624 89.9863 13.0506 91.1033C13.0133 94.4248 13.0369 97.7464 13.0369 101.066V103.589C13.1567 103.654 13.1959 103.695 13.2352 103.695C14.8234 103.699 16.4116 103.697 17.9999 103.697H22.9099C24.4981 103.697 26.0883 103.756 27.6745 103.681C29.2903 103.605 30.8687 103.969 32.4648 103.973C49.6467 103.996 66.8306 103.988 84.0126 103.988C84.7351 103.988 85.4575 103.965 86.178 103.996C86.6394 104.018 86.9869 103.904 87.301 103.546C87.5287 103.286 87.9586 103.168 88.1098 102.887C88.2492 102.625 88.2178 102.203 88.1118 101.902C88.0431 101.707 87.7172 101.591 87.4914 101.465C86.072 100.68 86.1211 100.682 86.0936 99.1937C86.0838 98.5998 86.4175 98.3304 86.7611 98.0237C86.8494 97.945 87.191 97.9725 87.2264 98.0433C87.6308 98.8673 88.1883 98.2223 88.6634 98.1987C89.1071 98.177 89.3329 97.882 89.2917 97.4317C89.2622 97.1131 89.2917 96.7375 89.1346 96.4917C88.8166 95.9961 89.0325 95.7051 89.3682 95.3904C89.6136 95.1603 89.9533 94.9538 90.0553 94.6667C90.1672 94.356 90.1437 93.9233 90.0082 93.6185C89.8944 93.3648 89.1739 93.709 89.009 94.1062C88.9913 94.1475 89.0207 94.2085 89.005 94.2478C88.8912 94.5173 88.7714 94.7827 88.6222 95.121C88.3434 94.5959 88.1294 94.2046 87.9272 93.8073C87.3108 92.594 87.3716 92.2065 88.3159 91.237C88.3552 91.1977 88.3395 91.1072 88.3513 91.0364C86.7356 90.9656 86.6649 90.942 85.8737 90.2183C86.5412 89.9686 87.2931 89.9587 87.8566 89.412C88.1412 89.1367 88.2178 88.8358 88.1118 88.5232C87.9763 88.1259 87.3108 87.7444 86.977 87.8191C86.871 87.8427 86.7297 87.9548 86.7081 88.0512C86.6649 88.2341 86.7081 88.4347 86.6943 88.6254C86.6453 89.3609 86.4725 89.5359 85.7716 89.5379C85.5635 89.5379 85.2435 89.6539 85.2573 89.2567C85.2651 89.0502 85.1238 88.7867 85.4752 88.6687C85.9287 88.5173 85.9562 87.9391 86.3527 87.7129C86.3842 87.6952 86.4136 87.6244 86.4018 87.5949C86.2565 87.2115 86.017 86.8378 86.3213 86.4248C85.7834 85.8781 86.3174 85.6539 86.6688 85.5182C87.1262 85.3412 87.6426 85.3176 88.1294 85.2056C88.7086 85.0738 88.9167 84.4799 88.5437 84.0276C88.1255 83.5182 87.6112 83.1308 86.9888 82.9027C86.82 82.8417 86.6099 82.8752 86.4568 82.7926C86.0269 82.5625 86.0072 82.1495 86.392 81.8997C86.9417 81.5418 88.0431 81.707 88.4259 82.2085C88.9972 82.9499 89.6274 83.0935 90.5069 82.7021C90.7974 82.5743 91.1115 82.535 91.0389 82.0708C90.9879 81.7405 91.0252 81.5281 90.5756 81.3766C90.232 81.2606 90.0985 81.2488 89.7471 81.3845C88.8578 81.7247 88.4396 81.3511 88.4259 80.3855C88.4259 80.3383 88.4259 80.2891 88.4259 80.2419C88.4259 79.8512 88.6746 79.6782 89.1719 79.7228C89.219 79.7267 89.2858 79.7444 89.3133 79.7208C89.9101 79.2056 90.4892 79.5182 91.1037 79.7031C91.4315 79.8014 91.8242 79.6874 92.1933 79.6677C92.0873 78.8063 92.0264 78.5959 91.6259 78.5939C90.9938 78.5939 90.8151 78.1397 90.4225 77.8309C91.1646 77.3668 90.982 76.4563 91.6004 76.0414C91.622 76.0256 91.6239 75.9253 91.6004 75.9057C91.1449 75.5084 91.5611 75.3039 91.7869 75.064C91.9852 74.8535 92.1854 74.6451 92.3994 74.4524C92.8078 74.0826 92.9766 73.7247 92.5172 73.2488C92.3601 73.0856 92.3307 72.8004 92.2306 72.5389C92.3994 72.5251 92.5368 72.5251 92.6723 72.4996C93.2514 72.3894 93.9032 72.3953 94.3783 72.1082C94.6669 71.9352 94.6669 71.2999 94.82 70.8811C94.8907 70.6883 95.0124 70.5153 95.197 70.177C94.3449 70.2124 93.646 70.2223 93.0669 69.7739C92.7665 69.5399 92.5859 68.3993 92.8686 68.2282C93.2789 67.9784 93.4007 68.4799 93.6618 68.6294C93.7756 68.6943 93.9582 68.6706 94.0387 68.7532C94.3371 69.0659 94.6865 69.1997 95.0281 68.9165C95.409 68.5999 95.9018 68.2734 95.5268 67.591H94.7003C94.4117 67.591 94.1211 67.6067 93.8345 67.5871C93.2691 67.5477 92.6055 67.0404 92.4878 66.5035C92.4446 66.3068 92.5761 66.0728 92.6291 65.8565C92.7921 65.9273 93.0021 65.9568 93.1101 66.0767C93.544 66.5566 93.9994 66.9283 94.7827 66.6313C94.7827 66.4819 94.7494 66.2931 94.7906 66.122C94.875 65.7759 94.9261 65.3806 95.1342 65.121C95.2598 64.9656 95.6544 64.9951 95.9273 64.9991C96.2316 65.003 96.4711 64.9538 96.6772 64.6962C96.9089 64.4091 97.1936 64.1633 97.5234 63.8329C97.1582 63.4671 96.8264 63.1957 96.5751 62.8614C96.4259 62.6647 96.4672 62.3639 96.8225 62.3993C97.3408 62.4524 97.6726 62.299 97.863 61.7877C97.9101 61.6598 98.1595 61.5379 98.3165 61.5359C99.0076 61.5261 99.2274 60.9007 99.626 60.533C99.7359 60.4327 99.6456 59.9922 99.5219 59.7818C98.9114 58.7434 98.9231 58.4268 99.7182 57.5989C100.478 56.8063 100.452 56.7965 99.8085 55.9942C98.8368 54.7827 98.7975 54.0709 99.9597 52.7611V54.7021C100.386 54.5487 100.716 54.5094 100.935 54.3344C101.346 54.006 101.701 53.6048 102.066 53.2233C102.394 52.8791 102.247 52.3501 101.778 52.295C101.473 52.2596 101.128 52.3304 100.839 52.4484C100.242 52.6884 99.9087 52.2518 99.5533 51.9686C99.1214 51.6244 99.5671 51.3884 99.785 51.1898C100.093 50.9106 99.9872 50.5684 99.9715 50.2577C99.9479 49.8113 100.129 49.4946 100.527 49.4042C101.036 49.2882 100.792 49.886 101.063 50.0925C101.354 50.3147 100.941 50.5507 100.78 50.7591C100.482 51.1485 100.619 51.6343 101.081 51.6834C101.432 51.7228 101.913 51.8722 102.105 51.4258C102.243 51.1092 102.38 50.5704 102.223 50.3914C101.787 49.8958 101.46 49.5281 102.186 49.0423C102.208 49.0286 102.135 48.8398 102.08 48.7493C101.917 48.4779 101.756 48.2046 101.57 47.9509C101.34 47.6421 101.348 47.3688 101.577 47.06C101.821 46.7336 102.141 46.7277 102.463 46.828C102.755 46.9184 103.03 47.5202 102.838 47.7877C102.655 48.0414 102.537 48.2596 102.588 48.5527C102.6 48.6215 102.747 48.7316 102.804 48.7159C103.105 48.6353 103.45 48.59 103.682 48.4071C104.406 47.8329 105.148 47.7877 105.94 48.297C106.067 47.2469 106.044 47.1938 106.9 46.8063C107.385 46.5881 107.504 46.299 107.498 45.8349C107.493 45.3432 107.518 44.9047 106.87 44.7395C106.586 44.6667 106.354 44.3462 106.124 44.1121C105.626 43.6028 105.714 43.6244 106.022 42.7886C106.283 42.0826 106.739 42.5841 107.084 42.4956C107.253 42.4524 107.479 42.7061 107.691 42.7316C108.292 42.8004 108.543 42.59 108.647 42.002C108.743 41.4651 108.808 40.9184 108.947 40.3914C109.034 40.0689 109.261 39.8329 109.664 39.8486C110.145 39.8683 110.632 39.8978 111.105 39.8349C111.35 39.8014 111.621 39.6185 111.778 39.4199C111.841 39.3413 111.59 39.0502 111.545 38.8437C111.441 38.356 110.569 38.6274 110.704 38.0846C110.795 37.7208 111.24 37.4494 111.511 37.123C111.56 37.064 111.531 36.9401 111.537 36.8476C110.895 36.2026 110.897 36.1711 109.984 36.1141C109.581 36.0886 109.332 35.8919 109.248 35.5871C109.167 35.3 109.261 34.9637 109.283 34.5999H110.64C110.734 34.0099 110.606 33.4671 110.936 32.9322C111.388 32.2006 111.319 32.1633 110.559 31.766C109.644 31.2901 109.64 31.2823 109.515 32.2754C109.509 32.3226 109.534 32.3953 109.511 32.415C109.418 32.4956 109.308 32.6195 109.21 32.6156C109.116 32.6117 108.985 32.4878 108.943 32.3855C108.38 31.0384 110.304 30.8909 110.215 29.766C110.308 29.7582 110.402 29.7464 110.494 29.7444C110.724 29.7405 110.954 29.7444 111.097 29.7444C111.276 30.4858 111.433 31.1328 111.603 31.8447C111.829 31.6185 111.949 31.4534 112.108 31.355C112.255 31.2626 112.446 31.2469 112.615 31.1879C112.74 31.1446 112.958 31.0994 112.964 31.0364C112.999 30.7041 113.048 30.3442 112.958 30.0335C112.891 29.8093 112.632 29.6244 112.428 29.4592C111.882 29.0207 111.729 28.5566 111.984 27.9961C112.355 27.182 112.567 27.0187 113.194 27.1485C113.692 27.2508 113.973 27.5969 114.14 28.0689C114.307 28.5409 114.713 28.2242 115.004 28.2852C115.08 28.3009 115.286 28.1279 115.275 28.0748C115.222 27.8152 115.165 27.53 115.012 27.3255C114.892 27.1643 114.627 27.1171 114.432 27.005C114.044 26.7808 113.951 26.1141 114.454 25.8231C114.758 25.6461 115.11 25.5517 115.436 25.4062C115.801 25.2429 116.207 25.123 116.506 24.8752C116.674 24.7355 116.663 24.3776 116.733 24.118C116.515 24.0669 116.297 23.9804 116.08 23.9804C115.972 23.9804 115.875 24.179 115.752 24.2164C115.161 24.3894 114.336 24.0905 114.195 23.5654C114.075 23.119 114.085 22.6097 114.163 22.1475C114.197 21.9548 114.56 21.8231 114.764 21.6539C115.341 21.1721 116.027 21.4022 116.667 21.3727C117.501 21.3354 117.503 21.359 117.874 20.2734C117.399 20.2242 116.936 20.177 116.129 20.0944C116.645 19.8939 116.822 19.7739 117 19.77C117.259 19.7641 117.577 19.9509 117.768 19.8545C118.047 19.7149 118.253 19.4081 118.449 19.1426C118.494 19.0836 118.408 18.8535 118.32 18.7847C118.147 18.651 117.935 18.5586 117.729 18.4799C116.755 18.1082 116.753 18.1102 116.822 16.9912C117.273 17.0522 117.731 17.0856 118.172 17.1839C118.634 17.2862 118.989 17.8093 119.551 17.532C119.818 16.651 119.607 15.9942 118.685 15.6539L118.695 15.6618ZM95.248 42.1416C94.9535 43.7818 94.449 45.3432 93.7521 46.7768C93.0453 48.2203 92.1619 49.5045 91.1214 50.594C90.073 51.6913 88.8519 52.6038 87.4894 53.3039C86.3351 53.8998 85.0727 54.3403 83.7279 54.6195L90.9859 74.535H80.9068L74.9799 55.5812H70.6118L67.0741 74.535H47.5618L45.0705 61.5733H23.1297L15.9699 74.535H4.08665L38.4054 16.6805H47.3301L59.0073 72.2203L67.1467 28.5979H81.8472C83.8457 28.5979 85.7716 28.8044 87.5739 29.2134C89.4193 29.6323 91.0134 30.3599 92.3091 31.3786C93.6323 32.4209 94.5943 33.8368 95.1656 35.5831C95.7349 37.3177 95.7624 39.5261 95.25 42.1416H95.248Z" fill="white"/>
<path d="M28.6152 51.7268H43.2254L39.941 31.1172L28.6152 51.7268Z" fill="white"/>
</g>
<defs>
<clipPath id="clip0_495_615">
<rect width="288" height="104" fill="white" transform="translate(0.0390625)"/>
</clipPath>
</defs>
</svg>
