<svg width="145" height="104" viewBox="0 0 145 104" fill="none" xmlns="http://www.w3.org/2000/svg">
<g clip-path="url(#clip0_495_560)">
<path d="M21.7658 24.2241H16.9043V33.912H21.7658V24.2241Z" fill="white"/>
<path d="M21.7658 43.6353H16.9043V57.4167H21.7658V43.6353Z" fill="white"/>
<path d="M21.7658 67.1311H16.9043V80.9125H21.7658V67.1311Z" fill="white"/>
<path d="M45.2188 85.7698V80.9126H31.061V85.7698H45.2188Z" fill="white"/>
<path d="M70.7441 85.7698V80.9126H56.5864V85.7698H70.7441Z" fill="white"/>
<path d="M96.2695 85.7698V80.9126H82.1117V85.7698H96.2695Z" fill="white"/>
<path d="M118.559 85.7698V80.9126H107.636V85.7698H118.559Z" fill="white"/>
<path d="M41.7976 69.298H93.6294C99.7529 69.298 104.712 64.343 104.712 58.2249V11.1087C104.712 4.99056 99.7529 0.0356445 93.6294 0.0356445H41.7976C35.6741 0.0356445 30.7148 4.99056 30.7148 11.1087V58.2249C30.7148 64.343 35.6741 69.298 41.7976 69.298Z" fill="white"/>
<path d="M33.968 3.28549L0 37.2151H2.6307V43.5375L30.7241 15.4685V11.1086C30.7241 8.05393 31.9683 5.28344 33.968 3.27661V3.28549Z" fill="white"/>
<path d="M40.8741 0.079834C38.1812 0.301829 35.7638 1.48284 33.9685 3.27656C31.96 5.28339 30.7246 8.05388 30.7246 11.1085V15.4685L43.5048 2.69937L40.8741 0.079834Z" fill="white"/>
<path d="M6.33679 37.2151H0V99.0273H6.33679V37.2151Z" fill="white"/>
<path d="M103.006 103.991L143.879 63.1619L139.4 58.6865L100.375 97.6688H103.006V103.991Z" fill="white"/>
<path d="M103.008 103.991L102.998 104.001H103.008V103.991Z" fill="white"/>
<path d="M0 97.6687V104H94.0386L100.375 97.6687H0Z" fill="white"/>
<path d="M103.007 97.6687H100.376L94.0391 104H102.998L103.007 103.991V97.6687Z" fill="white"/>
<path d="M53.6619 37.162V15.3533H48.125V0.0356445H75.1075V15.3533H69.5616V37.162H53.6619Z" fill="white"/>
<path d="M66.3887 37.162V0.0356445H79.9421C82.5817 0.0356445 84.9013 0.586191 86.8299 1.61625C90.6871 3.66748 92.9534 7.59234 92.9534 12.7337C92.9534 15.1846 92.3846 17.2358 91.4959 18.8963C92.5357 21.3915 92.5357 23.8956 92.5357 25.0678V26.0978C92.5357 28.6552 92.6512 29.4899 92.829 30.7508L93.7177 37.1531H66.3976L66.3887 37.162Z" fill="white"/>
<path d="M85.1953 37.162V0.0356445H109.734V15.3533H109.36V21.9243H111.218L109.023 37.162H85.1953Z" fill="white"/>
<path d="M101.904 37.162V0.0356445H126.443V15.3533H126.061V21.9243H127.927L125.723 37.162H101.904Z" fill="white"/>
<path d="M121.758 69.2978H115.857C114.302 69.2978 113.04 68.0369 113.04 66.4829V49.5403C113.04 47.9952 111.786 46.7343 110.231 46.7343H110.169C108.614 46.7343 107.352 45.4734 107.352 43.9194V34.6933C107.352 33.1394 108.614 31.8784 110.169 31.8784H122.291C122.567 31.8784 122.78 31.6564 122.78 31.39V18.1325C122.78 16.6052 121.527 15.3531 119.998 15.3531C118.47 15.3531 117.217 14.1011 117.217 12.5738V2.3265C117.217 1.06557 118.248 0.0355191 119.51 0.0355191L142.111 0V16.2411H136.485V46.7343H130.201V49.2473L144.03 49.2118V63.0021L137.818 68.3921C137.756 68.5963 137.48 69.2801 137.267 69.2801H121.758V69.2978Z" fill="white"/>
<path d="M80.5386 31.8784H49.459V69.2978H80.5386V31.8784Z" fill="white"/>
<path d="M70.0156 69.2978L78.8054 31.8784H92.972L101.913 69.2978H70.0156Z" fill="white"/>
<path d="M90.8301 69.2978V31.8784H104.072C111.858 31.8784 116.888 36.8422 116.888 44.5321C116.888 47.0184 116.328 49.0963 115.44 50.7746C116.506 53.3142 116.506 55.8893 116.506 57.1059V58.1448C116.506 60.64 116.604 61.679 116.773 62.7357L117.866 69.2978H90.8301Z" fill="white"/>
<path d="M136.255 61.59C136.255 61.59 136.237 61.6433 136.237 61.67C136.255 61.9008 136.335 62.9842 136.326 62.9931H130.398L130.425 61.7144H129.554C129.554 61.7144 129.687 58.5709 129.696 58.4111C129.723 57.9405 129.741 57.5586 129.749 57.4166C129.749 57.3899 129.749 57.3544 129.749 57.3277V57.31C129.749 57.31 129.749 57.239 129.749 57.2034L129.661 56.4398L129.572 55.614L129.447 54.6638L138.521 54.6816L137.722 55.8892C137.722 55.8892 137.793 55.8892 137.882 55.8892C138.157 55.8803 139.179 55.8537 139.179 55.8537L136.255 61.5989V61.59Z" fill="#3165B4"/>
<path d="M41.0873 25.1386C41.3183 27.4651 42.3137 29.4541 44.8289 29.4541C47.3441 29.4541 48.3039 28.0067 48.3039 25.7157C48.3039 23.4248 47.2374 22.0928 43.8779 20.45C39.5586 18.4254 37.8078 16.5962 37.8078 12.7779C37.8078 8.95959 40.3674 5.98486 44.8733 5.98486C50.4103 5.98486 51.8234 9.80317 51.9034 13.0443H47.9662C47.8151 11.6679 47.4329 9.19046 44.7934 9.19046C42.7315 9.19046 41.816 10.5668 41.816 12.4316C41.816 14.4917 42.7315 15.4862 45.8687 16.9336C50.4547 19.0737 52.4011 21.1693 52.4011 25.3694C52.4011 29.5696 49.957 32.6597 44.7223 32.6597C39.0343 32.6597 37.2745 28.9924 37.0879 25.1474H41.0962L41.0873 25.1386Z" fill="#3165B4"/>
<path d="M59.2712 9.90973H53.6543V6.3667H68.8875V9.90973H63.2795V32.2335H59.2712V9.90973Z" fill="#3165B4"/>
<path d="M75.6778 20.9029V32.2335H71.7051V6.3667H79.2239C83.8099 6.3667 86.325 8.84416 86.325 13.3107C86.325 17.0846 84.3431 18.7274 82.93 19.2601C85.0719 20.1748 85.9429 22.004 85.9429 25.7513V26.7813C85.9429 29.5252 86.0584 30.866 86.2895 32.2335H82.3967C82.0146 31.0525 81.979 28.9125 81.979 26.7369V25.8223C81.979 22.2704 81.2147 20.9029 78.0863 20.9029H75.6778ZM75.6778 17.6174H78.2729C81.1792 17.6174 82.2812 16.2055 82.2812 13.4616C82.2812 11.1351 81.1703 9.68774 78.6551 9.68774H75.6778V17.6263V17.6174Z" fill="#3165B4"/>
<path d="M101.664 20.4412H93.2657V28.7615H102.66L102.162 32.2335H89.293V6.3667H102.082V9.90973H93.2657V16.9336H101.664V20.4412Z" fill="#3165B4"/>
<path d="M117.28 20.4412H108.881V28.7615H118.275L117.777 32.2335H104.908V6.3667H117.706V9.90973H108.881V16.9336H117.28V20.4412Z" fill="#3165B4"/>
<path d="M126.14 9.90973H120.523V6.3667H135.757V9.90973H130.149V32.2335H126.14V9.90973Z" fill="#3165B4"/>
<path d="M41.1317 55.8272C41.3628 58.1804 42.3671 60.1783 44.9089 60.1783C47.4507 60.1783 48.4195 58.7132 48.4195 56.4044C48.4195 54.0957 47.3352 52.7459 43.949 51.0854C39.5942 49.0431 37.8167 47.1961 37.8167 43.3423C37.8167 39.4884 40.4029 36.4871 44.9533 36.4871C50.5436 36.4871 51.9745 40.3409 52.0456 43.6175H48.0728C47.9218 42.2323 47.5307 39.7282 44.8733 39.7282C42.7937 39.7282 41.8694 41.1134 41.8694 43.0048C41.8694 45.0827 42.7937 46.0861 45.9576 47.5513C50.588 49.7091 52.5521 51.8313 52.5521 56.067C52.5521 60.3026 50.0814 63.4283 44.8022 63.4283C39.0609 63.4283 37.2834 59.7254 37.0879 55.8361H41.1406L41.1317 55.8272Z" fill="#3165B4"/>
<path d="M70.9661 52.7815C70.9661 48.1995 71.0461 43.1913 71.1172 40.2965H71.0017C70.0774 45.0738 68.3443 54.5929 66.4868 62.9932H62.7808C61.3943 55.3655 59.5457 45.1893 58.6925 40.2255H58.5414C58.6925 43.2712 58.808 48.8566 58.808 53.3231V62.9932H55.0664V36.8689H61.1188C62.7363 44.4167 64.2383 52.6305 64.8249 56.3245H64.8604C65.3581 53.0123 67.2867 44.1148 68.9131 36.8689H74.85V62.9932H70.9573V52.7815H70.9661Z" fill="#3165B4"/>
<path d="M83.0801 55.8272L81.5781 62.9932H77.5254L83.6578 36.8689H88.9014L95.1493 62.9932H90.91L89.3635 55.8272H83.0801ZM88.6348 52.2842C87.4794 46.8143 86.6262 42.9959 86.244 40.6517H86.1285C85.8174 43.0403 84.8931 47.205 83.8177 52.2842H88.6348Z" fill="#3165B4"/>
<path d="M101.825 51.5472V62.9932H97.8164V36.8689H105.415C110.046 36.8689 112.587 39.373 112.587 43.8839C112.587 47.7022 110.579 49.3539 109.157 49.8955C111.317 50.819 112.205 52.666 112.205 56.4488V57.4877C112.205 60.2582 112.321 61.608 112.552 62.9932H108.615C108.233 61.7944 108.188 59.6455 108.188 57.4434V56.5199C108.188 52.9324 107.415 51.5472 104.251 51.5472H101.825ZM101.825 48.235H104.446C107.379 48.235 108.499 46.8054 108.499 44.0349C108.499 41.6817 107.379 40.2166 104.838 40.2166H101.834V48.235H101.825Z" fill="#3165B4"/>
<path d="M120.426 40.4563H114.756V36.8689H130.149V40.4563H124.479V62.9932H120.426V40.4563Z" fill="#3165B4"/>
</g>
<defs>
<clipPath id="clip0_495_560">
<rect width="144.04" height="104" fill="white"/>
</clipPath>
</defs>
</svg>
