<?xml version="1.0" encoding="UTF-8"?>
<svg id="Layer_2" data-name="Layer 2" xmlns="http://www.w3.org/2000/svg" xmlns:xlink="http://www.w3.org/1999/xlink" viewBox="0 0 144.04 104">
  <defs>
    <style>
      .cls-1 {
        fill: none;
      }

      .cls-2 {
        fill: #3165b4;
      }

      .cls-3 {
        fill: #fff;
      }

      .cls-4 {
        clip-path: url(#clippath);
      }
    </style>
    <clipPath id="clippath">
      <rect class="cls-1" y="0" width="144.04" height="104"/>
    </clipPath>
  </defs>
  <g class="cls-4">
    <g>
      <path class="cls-3" d="M21.77,24.22h-4.86v9.69h4.86v-9.69Z"/>
      <path class="cls-3" d="M21.77,43.64h-4.86v13.78h4.86v-13.78Z"/>
      <path class="cls-3" d="M21.77,67.13h-4.86v13.78h4.86v-13.78Z"/>
      <path class="cls-3" d="M45.22,85.77v-4.86h-14.16v4.86h14.16Z"/>
      <path class="cls-3" d="M70.75,85.77v-4.86h-14.16v4.86h14.16Z"/>
      <path class="cls-3" d="M96.27,85.77v-4.86h-14.16v4.86h14.16Z"/>
      <path class="cls-3" d="M118.56,85.77v-4.86h-10.92v4.86h10.92Z"/>
      <path class="cls-3" d="M33.97,3.29L0,37.22h2.63v6.32L30.73,15.47v-4.36c0-3.05,1.24-5.83,3.24-7.83h0Z"/>
      <path class="cls-3" d="M40.88.08c-2.69.22-5.11,1.4-6.91,3.2-2.01,2.01-3.24,4.78-3.24,7.83v4.36l12.78-12.77L40.88.08Z"/>
      <path class="cls-3" d="M6.34,37.22H0v61.81h6.34v-61.81Z"/>
      <path class="cls-3" d="M103.01,103.99l40.87-40.83-4.48-4.48-39.02,38.98h2.63v6.32Z"/>
      <path class="cls-3" d="M103.01,103.99h-.01s.01.01.01.01h0Z"/>
      <path class="cls-3" d="M0,97.67v6.33h94.04l6.34-6.33H0Z"/>
      <path class="cls-3" d="M103.01,97.67h-2.63l-6.34,6.33h8.97v-6.33Z"/>
      <path class="cls-3" d="M85.2,4.7V.04h18.87v1.92h-.29v.83h1.43l-1.69,1.91h-18.32Z"/>
      <path class="cls-2" d="M136.26,61.59s-.02.05-.02.08c.02.23.1,1.31.09,1.32h-5.93l.03-1.28h-.87s.13-3.14.14-3.3c.03-.47.04-.85.05-.99v-.21l-.09-.76-.09-.83-.12-.95,9.07.02-.8,1.21h.16c.27,0,1.3-.04,1.3-.04l-2.92,5.75h0Z"/>
      <path class="cls-3" d="M125.43,17.13l-2.08-.71-2.82-1.77-.54-14.64-18.08.04,1.68,34.18,22.14.43-.37-12.46.07-5.06ZM117.78,32.23h-12.87V6.37h12.8v3.54h-8.83v7.02h8.4v3.51h-8.4v8.32h9.39l-.5,3.47Z"/>
      <g>
        <path class="cls-3" d="M93.63,69.3l2.35-5.1.67-7.8-.38-19.53,8.01-2.9.43-22.86C104.72,4.99,99.76.04,93.63.04h-51.83c-6.12,0-11.08,4.95-11.08,11.07v47.12c0,6.12,4.96,11.07,11.08,11.07h51.83M41.09,25.14h0s0,0,0,0c.23,2.32,1.23,4.31,3.74,4.31s3.47-1.45,3.47-3.74-1.07-3.62-4.43-5.27c-4.32-2.02-6.07-3.85-6.07-7.67s2.56-6.79,7.07-6.79c5.54,0,6.95,3.82,7.03,7.06h-3.94c-.15-1.38-.53-3.85-3.17-3.85-2.06,0-2.98,1.38-2.98,3.24,0,2.06.92,3.05,4.05,4.5,4.59,2.14,6.53,4.24,6.53,8.44s-2.44,7.29-7.68,7.29c-5.69,0-7.45-3.67-7.63-7.51h4s0,0,0,0ZM44.81,63.43c-5.74,0-7.52-3.7-7.71-7.59h4.05s0,0,0,0h0s0,0,0,0c.23,2.35,1.24,4.34,3.78,4.34s3.51-1.47,3.51-3.77-1.08-3.66-4.47-5.32c-4.35-2.04-6.13-3.89-6.13-7.74s2.59-6.86,7.14-6.86c5.59,0,7.02,3.85,7.09,7.13h-3.97c-.15-1.39-.54-3.89-3.2-3.89-2.08,0-3,1.39-3,3.28,0,2.08.92,3.08,4.09,4.55,4.63,2.16,6.59,4.28,6.59,8.52s-2.47,7.36-7.75,7.36ZM53.66,6.37h15.23v3.54h-5.61v22.32h-4.01V9.91h-5.62v-3.54ZM74.86,62.99h-3.89v-10.21h0c0-4.58.08-9.59.15-12.48h-.12c-.92,4.78-2.66,14.3-4.51,22.7h-3.71c-1.39-7.63-3.24-17.8-4.09-22.77h-.15c.15,3.05.27,8.63.27,13.1v9.67h-3.74v-26.12h6.05c1.62,7.55,3.12,15.76,3.71,19.46h.04c.5-3.31,2.43-12.21,4.05-19.46h5.94v26.12ZM75.68,32.23h-3.97V6.37h7.52c4.59,0,7.1,2.48,7.1,6.94,0,3.77-1.98,5.42-3.4,5.95,2.14.91,3.01,2.74,3.01,6.49v1.03c0,2.74.12,4.08.35,5.45h-3.89c-.38-1.18-.42-3.32-.42-5.5v-.91c0-3.55-.76-4.92-3.89-4.92h-2.41v11.33ZM90.92,62.99l-1.55-7.17h-6.28l-1.5,7.17h-4.05l6.13-26.12h5.24l6.25,26.12h-4.24ZM102.17,32.23h-12.87V6.37h12.79v3.54h-8.82v7.02h8.4v3.51h-8.4v8.32h9.39l-.5,3.47Z"/>
        <path class="cls-3" d="M86.13,40.65c-.31,2.39-1.24,6.55-2.31,11.63h4.82c-1.16-5.47-2.01-9.29-2.39-11.63h-.12Z"/>
      </g>
      <g>
        <path class="cls-3" d="M104.84,40.22h-3v8.02h2.61c2.93,0,4.05-1.43,4.05-4.2,0-2.35-1.12-3.82-3.66-3.82Z"/>
        <path class="cls-3" d="M114.76,62.99c-.17-1.06,0-1.81,0-4.31v-1.82c0-1.22.63-3.73-.43-6.27.89-1.68.07-3.88.07-6.37,0-7.69-1.7-10.48-9.48-10.48l-8.64,3.12-.82,24.72-1.82,7.71h24.24s-3.11-6.3-3.11-6.3ZM112.21,56.45v1.04c0,2.77.12,4.12.35,5.51h-3.94c-.38-1.2-.43-3.35-.43-5.55v-.92c0-3.59-.77-4.97-3.94-4.97h-2.43v11.45h-4.01v-26.12h7.6c4.63,0,7.17,2.5,7.17,7.02,0,3.82-2.01,5.47-3.43,6.01,2.16.92,3.05,2.77,3.05,6.55Z"/>
      </g>
      <path class="cls-3" d="M130.21,49.25v-2.51h6.28v-30.49h5.63V0l-22.6.04c-1.26,0,.44,1.07.44,2.33,0,0-1.48,12.99.05,12.99s2.78,1.25,2.78,2.78v13.26c0,.27-.21.49-.49.49l-13.79,1.87c-1.55,0,4.09,3.48,4.09,5.03v5.11c0,1.55-.33,3.53,1.23,3.53v.82c1.55,0-.77-.24-.77,1.31v16.94c0,1.55,1.26,2.81,2.82,2.81h5.9v-.02h15.51c.21,0,.49-.68.55-.89l6.21-5.39v-13.79l-13.83.04ZM130.15,40.46h-5.67v22.54h-4.05v-22.54h-5.67v-3.59h15.39v3.59ZM130.15,32.23h-4.01V9.91h-5.62v-3.54h15.23v3.54h-5.61v22.32Z"/>
    </g>
  </g>
  <path class="cls-3" d="M78.64,9.6h-2.98v7.93h2.6c2.91,0,4.01-1.41,4.01-4.16,0-2.33-1.11-3.77-3.63-3.77Z"/>
</svg>